<svg xmlns="http://www.w3.org/2000/svg" viewBox="350.1 236.5 414.3 369.2"><style type="text/css"> .st0{fill:#000000;}</style><path class="st0" d="M607.6 605.7c0-6.9 0-13.8 0-20.7 0-8.6 0-17.2 0-25.9 0-0.6 0-1.3 0-2.1 0.8 0 1.4-0.1 2.1-0.1 14 0 28 0 42.1 0 1.1 0 2.2 0.2 3.1-0.6 0.2-0.2 0.5-0.1 0.8-0.2 4.3-0.5 8.1-2.1 11.8-4.1 4.9-2.7 9.3-6 13.4-9.6 6.7-5.9 13-12.1 18.3-19.3 8.7-11.8 13.9-25 15.4-39.6 1.2-11.9 0.3-23.6-3.3-35.1 -4-12.6-11.1-23.4-20.5-32.6 -10.1-10-21.9-17.2-35.7-20.8 -6.6-1.7-13.4-2.6-20.3-2.6 -8.3 0-16.7 0-25 0 -0.6 0-1.2 0-2 0 0-16.6 0-33.1 0-49.8 0.6 0 1.2-0.1 1.8-0.1 9.5 0 19 0.3 28.4-0.1 11-0.4 19.4-5.6 24.5-15.4 2.3-4.4 2.8-9.2 2.6-14.1 -0.4-9.6-4.5-17.3-12.5-22.8 -5.2-3.6-11-5-17.3-5 -8.6 0-17.1 0-25.7 0 -0.6 0-1.2 0-2 0 -0.1-0.5-0.2-0.8-0.2-1.1 0-15.8 0-31.6 0-47.4 10.8 0 21.6 0 32.4 0 0.6 0.1 1.1 0.3 1.7 0.3 9.1 0.8 17.9 2.9 26.2 6.8 11.2 5.3 20.6 13 28.3 22.6 13.5 16.8 18.7 36.1 15.9 57.4 -1.1 8.1-4.6 15.1-10.6 20.8 -4.6 4.4-10.1 7.3-16.2 9.3 -1.1 0.4-2.3 0.7-3.7 1.2 1.9 0.5 3.6 0.9 5.2 1.4 7.8 2.4 14.9 6.2 21.6 10.8 9 6.1 17 13.2 24.7 20.8 8 7.9 14.4 16.8 19.3 26.9 7.3 15.2 10.9 31.2 11.7 48 0 0.8 0.2 1.7 0.3 2.5 0 5.2 0 10.3 0 15.5 -0.1 0.6-0.2 1.2-0.3 1.9 -0.4 3.9-0.6 7.8-1.1 11.6 -1.8 13.5-5.7 26.3-11.9 38.5 -12.6 24.8-31.1 44.2-54.4 59.1 -12.3 7.9-25.8 12.6-40.6 13.1 -0.6 0-1 0.1-1.3 0.6C639.1 605.7 623.3 605.7 607.6 605.7z"/><path class="st0" d="M468 236.5c-1.6 0.3-3.2 0.7-4.9 1 -27 4.7-50.3 16.5-69.7 36 -13.9 13.9-24.3 30-30.4 48.8 -2.8 8.5-4.5 17.3-5.4 26.3 -1 10.5-0.9 20.9 0.5 31.3 2.9 22.2 11.2 42 25.2 59.5 9.9 12.4 21.4 23 34.1 32.5 4.3 3.2 8.9 5.9 14 7.6 0.1 0 0.2 0.1 0.4 0.3 -26.8 41.4-53.7 82.7-80.7 124.4v0.1l-1 1.5c19.7 0 39.3 0 58.9 0 0.3-0.6 0.5-1.2 0.8-1.7 23.9-38.2 47.8-76.5 71.6-114.7 0.7-1.2 1.5-1.6 2.9-1.6 13 0.1 26 0 39 0 0.6 0 1.3 0 2.1 0 0 0.9 0 1.6 0 2.3 0 32.1 0 64.2 0 96.3 0 5.7 0 11.4 0 17.1 0 0.7 0.1 1.5 0.1 2.2 16.1 0 32.2 0 48.3 0 0-123.1 0-246.1 0-369.2C538.5 236.5 503.2 236.5 468 236.5zM525.3 439c-0.6 0-1.1 0.1-1.6 0.1 -14.3 0-28.6 0.2-42.9 0 -19.7-0.3-36.7-7.3-51-20.9 -9.2-8.7-16.2-18.9-20.3-31 -3.5-10.5-4.6-21.3-3.7-32.3 0.9-11.4 4.1-22.1 10.1-31.9 10.4-16.7 24.6-28.6 43.5-34.6 7-2.2 14.2-3.2 21.6-3.3 14.2-0.1 28.5 0 42.7 0 0.5 0 0.9 0 1.5 0.1C525.3 336.6 525.3 387.7 525.3 439z"/></svg>