<svg xmlns="http://www.w3.org/2000/svg" viewBox="286.9 259 529.1 324.8"><style type="text/css">  
	.st0{fill:#000000;}
	.st1{fill:#000000;stroke:#000000;stroke-width:0.6615;stroke-miterlimit:22.9256;}
</style><path class="st0" d="M586.9 529.2C586.9 529.1 586.9 529.1 586.9 529.2 586.9 529.2 586.9 529.2 586.9 529.2L586.9 529.2z"/><path class="st0" d="M413.7 481.9c-61.4-3.2-101.3 44.7-40.6 45.6 49.5-35.6 111.6-63.7 133.7-49 20.4 23.3-85.9 59.3-126.6 54.2 -48.3 51.3-7.2 60.8 58.9 20.7 21.7-18.9 42.6-26.2 59.7-21.3l-28.4 28.8c-6.4 12.4 6 6.8 20.1-4.4 17.7-21.7 37.3-27 52.6-25 7.5-7.5 16.1-14.1 23.6-21.7h10.8c-17.9 15.9-36.4 31.2-52.9 48.8 -3.1 8.6 4.4 9.9 20.2-4.5l25.6-21.5 9.6-0.1 -27.4 25.3c-6.1 10.2 4.5 10.8 23.5 1.5 5.1-19.7 41.2-51.9 55.4-52.3 11.2 6.6-15.9 34.4-47.9 51.8 -4.5 11.2 8.7 9.1 29.2 1.6 3.7-18.5 41.6-51.6 52.9-50.5 13.8 2.6-7 28.8-44.5 49.4 -3.8 13.3 11.2 7.1 26.4-4.1 18.2-19.4 39.6-28.8 61.1-22.6l-26.8 27.9c-3.9 4.3 0.9 10.1 8.9 3.6 13.7-12.4 39.8-43.7 63.1-34.1 6.2 4.9 0.3 12.9-9.7 17.6 -2.4 0.5-3.1 0-2.1-1.7 7-5.2 10.2-9.7 6.7-12.9 -17.4-4.7-56.5 32.3-29.4 34.8 11.3-1.1 21.7-5 31.7-10.8 0.6 1 1.1 2.1 1.7 3.1 -22.2 14.3-55.1 19.4-50.4-2.6 -15 17.5-28.7 15.8-27.9 4.3 -16.6 14.4-32 10.5-26.8-3.3 -15.9 17-32.3 14.9-35.4 5.2 -24.1 11.1-35.2 10-35.5-1.1 -21.4 13.9-38.5 11.1-31.6-5.6 -16.4 18.1-32 17.8-27.5 2.5 -21.7 18.2-36.5 13.1-27.4-0.9 -13.2 13.4-31.5 19-27.5 3.7 -19.4 14.1-31.3 8.9-24.7-4.4 -36.1 32.8-123.1 44.5-70.2-25.2 -56.4 0.5-49.9-54.5 46.1-53.9L413.7 481.9 413.7 481.9zM385.1 528.7c47.4 5.7 126.4-33.9 118-46.5C493.2 471.2 448.2 483.4 385.1 528.7L385.1 528.7zM488.1 533.6c-16.5 20-29.3 30.9-37.2 32.4 -6.3 1.2-7.2-1.4-5.2-5.9C451.8 547.9 473.5 533.8 488.1 533.6L488.1 533.6zM537.6 533.9c-16.5 20-29.3 30.9-37.2 32.4 -6.3 1.2-7.2-1.4-5.2-5.9C501.3 548.1 523 534.1 537.6 533.9L537.6 533.9zM697 534.1c-16.5 20-29.3 30.9-37.2 32.4 -6.3 1.2-7.2-1.4-5.2-5.9C660.7 548.4 682.4 534.3 697 534.1L697 534.1zM587.1 520.2c2.1 1.9 1.8 5.2-0.6 7.3 -2.4 2.1-6 2.4-8.1 0.5 -2.1-1.9-1.8-5.2 0.6-7.3C581.4 518.5 585 518.3 587.1 520.2L587.1 520.2zM584.6 553.6c33.3-21.6 48.6-38.4 42.4-42C608.6 522.2 589.6 539.9 584.6 553.6L584.6 553.6zM622.3 554c33.3-21.6 48.6-38.4 42.4-42C646.4 522.7 627.3 540.3 622.3 554L622.3 554z"/><path class="st0" d="M770.1 564.6c0-0.8-0.2-1.5-0.5-2.2 -0.3-0.7-0.8-1.3-1.3-1.8 -0.6-0.5-1.3-1-2.1-1.2 -0.8-0.3-1.6-0.4-2.5-0.4 -0.8 0-1.6 0.1-2.4 0.4 -0.8 0.3-1.4 0.7-2 1.2 -0.6 0.6-1.1 1.2-1.4 1.9 -0.3 0.7-0.5 1.4-0.5 2.2 0 0.8 0.2 1.5 0.5 2.2 0.3 0.7 0.8 1.3 1.4 1.9 0.6 0.5 1.3 1 2.1 1.2 0.8 0.3 1.6 0.4 2.4 0.4 0.8 0 1.6-0.1 2.4-0.4 0.8-0.3 1.5-0.7 2.1-1.3 0.6-0.5 1-1.1 1.3-1.8C770 566.1 770.1 565.4 770.1 564.6L770.1 564.6zM763.8 558.1c1 0 1.9 0.2 2.8 0.5 0.9 0.3 1.6 0.8 2.3 1.4 0.7 0.6 1.2 1.3 1.5 2.1 0.4 0.8 0.5 1.6 0.5 2.5 0 0.9-0.2 1.7-0.5 2.5 -0.3 0.8-0.9 1.4-1.5 2 -0.7 0.6-1.5 1.1-2.3 1.4 -0.9 0.3-1.8 0.5-2.7 0.5 -1 0-1.9-0.2-2.7-0.5 -0.9-0.3-1.6-0.8-2.3-1.4 -0.7-0.6-1.2-1.3-1.6-2.1 -0.4-0.8-0.5-1.6-0.5-2.4 0-0.8 0.2-1.7 0.6-2.4 0.4-0.8 0.9-1.5 1.6-2.1 0.7-0.6 1.4-1.1 2.2-1.4C761.9 558.3 762.8 558.1 763.8 558.1L763.8 558.1z"/><path class="st1" d="M760.9 567.8v-7.1h3.8c0.7 0 1.3 0.2 1.8 0.5 0.5 0.3 0.7 0.8 0.7 1.4 0 0.8-0.4 1.3-1.1 1.7 0.4 0.1 0.7 0.4 0.8 0.7 0.1 0.3 0.1 0.8 0.1 1.4 0 0.2 0 0.4 0 0.6 0 0.2 0.1 0.3 0.1 0.4 0.1 0.1 0.2 0.2 0.3 0.2v0.2h-1.3c-0.1-0.3-0.1-0.7-0.1-1.3 0-0.6-0.1-1-0.2-1.3 -0.2-0.3-0.5-0.4-1.1-0.4H762v3L760.9 567.8 760.9 567.8zM762 563.9h2.7c0.4 0 0.8-0.1 1-0.3 0.2-0.2 0.4-0.5 0.4-0.9 0-0.3-0.1-0.6-0.3-0.9 -0.2-0.2-0.5-0.4-1-0.4H762V563.9L762 563.9z"/><path class="st0" d="M552.2 260.3v183.2 1.2l-1.2-0.2 -176.5-28 -0.1 0c-9.1-2.6-16.9-6.5-22.8-10.5 -8.2-5.5-12.9-11.2-13.3-14v0L323 307.8 288 262.5l-1.2-1.5 2 0 262.3-1.6 1 0L552.2 260.3 552.2 260.3zM550.1 442.3V261.3l-259.2 1.6 33.9 44 0.2 0.4 15.4 84.4 0 0.1c0.2 2.3 4.7 7.4 12.4 12.6 5.7 3.8 13.2 7.6 22.1 10.2L550.1 442.3 550.1 442.3z"/><path class="st0" d="M552.2 261.3v181.1l171.5-30.2c9-2.3 17.1-5.2 23.3-9.2 6.1-3.9 10.4-8.8 11.9-14.9h0l16.2-80.7 0.2-0.4 36.4-45.9L552.2 261.3 552.2 261.3zM550.1 443.5V260.3l0-1h1.1l262.7-0.3 2.1 0 -1.2 1.6 -37.5 47.2 -16.2 80.5 0 0c-1.7 6.7-6.3 11.9-12.8 16.1 -6.4 4.1-14.8 7.2-24 9.5l-0.1 0 -172 30.6 -2.1-0.6V443.5L550.1 443.5z"/><path class="st0" d="M290.1 262.5l29.3 14.2 0.2 0.2 23.7 30.5 0.1 0.3 16.2 85.2 0.1 0.7 -0.1 0c0.2 0.4 0.5 0.8 0.9 1.4 1.9 2.5 6.5 6.5 15.4 10.3 28.5 6 57.4 11.6 86.6 16.9 29.3 5.3 58.9 10.3 88.8 15l-0.2 1.3c-29.9-4.7-59.6-9.7-88.8-15 -29.2-5.3-58.2-10.9-86.8-16.9l-0.1 0c-9.2-3.9-14-8.2-16-10.8 -0.5-0.7-0.9-1.3-1.1-1.7 -0.2-0.5-0.3-0.9-0.1-1.2L342.1 308l-23.5-30.3 -29.1-14.1L290.1 262.5 290.1 262.5z"/><polygon class="st0" points="319 276.6 779.9 276.6 812.8 260.5 813.4 261.7 780.4 277.8 780 277.9 319 277.9 "/><polygon class="st0" points="547.2 286.4 546.5 304.3 390 304.2 375.7 285.8 "/><polygon class="st0" points="546.5 321.5 545.9 310 390 310 392.4 322.1 "/><polygon class="st0" points="546.5 345.7 546.5 329 389.4 329 392.4 346.4 "/><polygon class="st0" points="397.4 351.5 468.2 351.5 468.3 379.5 399.9 378.9 "/><polygon class="st0" points="474.3 361.3 547 361.3 547 371.2 474.3 371.2 "/><polygon class="st0" points="551.2 329.1 623.9 329.1 623.9 337.2 551.2 337.2 "/><polygon class="st0" points="631.4 293.8 716.8 293.8 709.8 302.6 631.4 301.8 "/><polygon class="st0" points="468.4 393.7 407.1 393.7 413.4 402.8 468.4 401.8 "/><polygon class="st0" points="474.3 384 475.2 414.9 547 426 547 384.2 "/><polygon class="st0" points="551.2 285.9 624.8 285.9 624.8 313.4 551.2 313.4 "/><polygon class="st0" points="630.5 316.4 707.2 316.4 703.8 346.8 630.5 346.8 "/><polygon class="st0" points="551.2 351.9 551.2 369.5 699.3 370.4 703 351.9 "/><polygon class="st0" points="551.2 375.5 551.2 387 694.8 387 698.2 375.5 "/><path class="st0" d="M551.2 394.2v31.4c41.1-6.6 82.3-13.3 123.4-19.9 12.5-2.5 19.1-7.2 18.5-13L551.2 394.2 551.2 394.2z"/><path class="st0" d="M780.6 277.6l-23.7 31.7 -15 80.7h0c-0.6 3.8-2.5 7-4.8 9.6 -2.8 3-6.3 5-9.4 5.8 -47.3 11.2-95.3 19.4-143.2 27.5 -11 1.9-21.9 3.7-33.1 5.7l-0.3-1.3c10.9-1.9 22-3.8 33.1-5.7 47.9-8.1 95.9-16.3 143.1-27.5 2.9-0.7 6.1-2.5 8.7-5.4 2.2-2.4 3.9-5.4 4.5-8.9l0 0 15-80.8 0.1-0.3 23.8-31.8L780.6 277.6 780.6 277.6z"/><polygon class="st0" points="324 306.8 342.7 307.1 342.7 308.4 323.9 308.1 "/><polygon class="st0" points="776.3 308.1 757.5 308.4 757.5 307.1 776.3 306.8 "/><path class="st0" d="M545.9 286.6l-214.7-0.1 14.1 17.8 200.5-0.7L545.9 286.6 545.9 286.6zM329.8 285.2l216.8 0.1h0.7l0 0.7 -0.1 18.3 0 0.6 -0.7 0L345 305.6l-0.4 0 -0.2-0.3 -15.1-19.1 -0.8-1L329.8 285.2 329.8 285.2z"/><path class="st0" d="M348.1 310.6l1.6 11.1 196.1-0.3v-10.8L348.1 310.6 348.1 310.6zM348.4 322.4l-1.8-12.4 -0.1-0.7 0.8 0 199.3 0h0.7v0.7 12.1 0.6l-0.7 0L349.1 323l-0.6 0L348.4 322.4 348.4 322.4z"/><path class="st0" d="M350.9 329l2.6 16.8h192.3v-16.1L350.9 329 350.9 329zM352.2 346.5l-2.8-18.1 -0.1-0.7 0.8 0 196.5 0.7 0.7 0v0.6 17.4 0.7h-0.7H352.9h-0.6L352.2 346.5 352.2 346.5z"/><path class="st0" d="M354.7 352.9l5 26h107.9l-0.1-26.7L354.7 352.9 354.7 352.9zM358.4 379.6l-5.3-27.3 -0.1-0.8 0.8 0 114.3-0.8 0.7 0 0 0.7 0.1 28.1 0 0.7h-0.7H359.1l-0.6 0L358.4 379.6 358.4 379.6z"/><path class="st0" d="M363.6 392.5l104.7 0.6 0.7 0v0.6 8.1 0.7h-0.7c-15 0-29.9 0.4-44.9 0.8 -15 0.4-30 0.8-45 0.8l-0.2 0c-4-1-7.3-2.4-9.8-4.2 -2.6-1.8-4.4-3.9-5.5-6.4l-0.4-0.9L363.6 392.5 363.6 392.5zM467.6 394.3l-102.9-0.6c1 1.9 2.5 3.5 4.6 4.9 2.4 1.6 5.5 2.9 9.3 3.9 14.9 0 29.9-0.4 44.8-0.8 14.7-0.4 29.5-0.7 44.2-0.8L467.6 394.3 467.6 394.3z"/><path class="st0" d="M631.4 293.1l132.7-0.5 1.3 0 -0.8 1 -7.3 9.9 -0.2 0.3 -0.4 0 -125.4-1.3 -0.7 0v-0.6 -8.1 -0.6L631.4 293.1 631.4 293.1zM762.8 293.9l-130.7 0.5v6.8l124.3 1.3L762.8 293.9 762.8 293.9z"/><path class="st0" d="M752.3 317l-6.3 30.6 -0.1 0.5 -0.6 0 -114.8-0.6 -0.7 0v-0.6 -30.4 -0.7l0.7 0 121.1 0.5 0.8 0L752.3 317 752.3 317zM744.7 346.8l6.1-29.3L631.2 317v29.1L744.7 346.8 744.7 346.8z"/><path class="st0" d="M744.9 352.5l-3 18.3 -0.1 0.6 -0.6 0 -188.7-1.2 -0.7 0v-0.6 -17.6 -0.7l0.7 0 191.7 0.5 0.8 0L744.9 352.5 744.9 352.5zM740.6 370l2.8-17 -190.2-0.5v16.3L740.6 370 740.6 370z"/><path class="st0" d="M741.1 375.7l-2 12.1 -0.1 0.6 -0.6 0L552 387.7l-0.7 0V387v-11.5 -0.6h0.7l188.3 0.1 0.8 0L741.1 375.7 741.1 375.7zM737.7 387.1l1.8-10.8 -186.8-0.1v10.2L737.7 387.1 737.7 387.1z"/><path class="st0" d="M736.9 393.2c-0.4 9.7-42.3 16.8-97 26 -27.2 4.6-57.5 9.8-87.4 15.9l-0.9 0.2v-0.8 -8.9 -0.5l0.6-0.1 126.9-21c4.8-1.3 8.3-2.9 10.5-4.7 2.1-1.7 3-3.6 2.6-5.8l-0.1-0.7 0.8 0 43.2-0.2 0 0.7L736.9 393.2 736.9 393.2zM639.7 418c52.6-8.9 93.3-15.8 95.7-24.1l-41.6 0.2c0.1 2.3-0.9 4.4-3.2 6.2 -2.4 1.9-6.1 3.6-11.1 5l-0.1 0 -126.3 20.9v7.6C582.8 427.6 612.8 422.5 639.7 418L639.7 418z"/><path class="st0" d="M339.8 391.4c3.2 2.7 6.3 4.1 9.4 4.3 3.1 0.2 6.1-0.9 9.2-3.2l0.9 1c-3.4 2.5-6.7 3.7-10.2 3.5 -3.4-0.2-6.8-1.7-10.3-4.6L339.8 391.4 339.8 391.4z"/><path class="st0" d="M758.7 392.3c-3.4 2.9-5.8 4.5-8.7 5.1 -2.9 0.6-6.2 0.2-11.4-1l0.3-1.3c5 1.1 8.1 1.5 10.8 1 2.6-0.6 4.9-2.1 8.1-4.8L758.7 392.3 758.7 392.3z"/><path class="st0" d="M778.3 390.4h1.7c0.4 0 0.7 0 1 0.1 0.2 0.1 0.4 0.2 0.5 0.3 0.1 0.2 0.2 0.4 0.2 0.6 0 0.3-0.1 0.5-0.2 0.7 -0.1 0.2-0.3 0.3-0.6 0.3l0 0c0.2 0 0.4 0.1 0.5 0.2 0.1 0.1 0.2 0.2 0.2 0.4 0 0.2 0.1 0.4 0.1 0.8 0 0.1 0 0.3 0.1 0.4 0 0.2 0.1 0.2 0.2 0.3v0h-0.6c-0.1-0.1-0.1-0.2-0.1-0.3s0-0.3 0-0.4c0-0.1 0-0.3 0-0.4 0-0.2-0.1-0.3-0.1-0.4 -0.1-0.1-0.2-0.2-0.3-0.2 -0.2 0-0.4-0.1-0.8-0.1h-1v1.8l-0.6 0V390.4L778.3 390.4zM778.9 390.9v1.4h1.4c0.6 0 0.9-0.2 0.9-0.7 0-0.3-0.1-0.5-0.3-0.6 -0.2-0.1-0.4-0.1-0.8-0.1H778.9L778.9 390.9zM779.8 396.4c-0.7 0-1.4-0.2-2-0.5 -0.6-0.3-1.1-0.8-1.5-1.4 -0.4-0.6-0.6-1.2-0.6-1.9 0-0.7 0.2-1.3 0.6-1.9 0.4-0.6 0.9-1 1.5-1.4 0.6-0.3 1.3-0.5 2-0.5 0.7 0 1.4 0.2 2 0.5 0.6 0.3 1.1 0.8 1.5 1.4 0.4 0.6 0.5 1.2 0.5 1.9 0 0.7-0.2 1.3-0.5 1.9 -0.4 0.6-0.9 1-1.5 1.4C781.2 396.2 780.6 396.4 779.8 396.4L779.8 396.4zM779.8 395.9c0.7 0 1.3-0.2 1.8-0.5 0.6-0.3 1-0.7 1.3-1.2 0.3-0.5 0.5-1.1 0.5-1.7 0-0.6-0.2-1.2-0.5-1.7 -0.3-0.5-0.8-0.9-1.3-1.2 -0.6-0.3-1.2-0.5-1.8-0.5 -0.6 0-1.3 0.2-1.8 0.5 -0.6 0.3-1 0.7-1.3 1.2 -0.3 0.5-0.5 1.1-0.5 1.7 0 0.6 0.2 1.2 0.5 1.7 0.3 0.5 0.8 0.9 1.3 1.2C778.6 395.8 779.2 395.9 779.8 395.9L779.8 395.9z"/><path class="st0" d="M778.3 390.4h1.7c0.2 0 0.4 0 0.6 0 0.2 0 0.3 0 0.4 0.1 0.1 0 0.2 0.1 0.3 0.1 0.1 0.1 0.2 0.1 0.2 0.2 0.1 0.1 0.1 0.2 0.1 0.3 0 0.1 0.1 0.2 0.1 0.4h0c0 0.1 0 0.3-0.1 0.4 0 0.1-0.1 0.2-0.2 0.3 -0.1 0.1-0.2 0.2-0.3 0.2 -0.1 0-0.2 0.1-0.3 0.1 0.1 0 0.2 0 0.2 0.1 0.1 0 0.1 0.1 0.2 0.1l0 0c0.1 0 0.1 0.1 0.1 0.2 0 0.1 0.1 0.1 0.1 0.2 0 0.1 0 0.2 0 0.3 0 0.1 0 0.3 0 0.5 0 0.1 0 0.1 0 0.2 0 0.1 0 0.1 0 0.2 0 0.1 0 0.1 0.1 0.2 0 0 0.1 0.1 0.1 0.1l0 0v0 0 0h0 -0.6 0v0c0 0-0.1-0.1-0.1-0.2 0-0.1 0-0.1-0.1-0.2 0-0.1 0-0.1 0-0.2 0-0.1 0-0.1 0-0.2l0-0.2 0-0.2c0-0.1 0-0.2 0-0.2h0c0-0.1 0-0.1-0.1-0.2 0 0-0.1-0.1-0.1-0.1 -0.1 0-0.1-0.1-0.2-0.1l0 0c-0.1 0-0.2 0-0.3-0.1 -0.1 0-0.3 0-0.4 0l0 0h-1v1.8 0h0l-0.6 0h0v0L778.3 390.4 778.3 390.4 778.3 390.4 778.3 390.4zM780 390.4h-1.7v4.2l0.6 0v-1.8 0h0 1l0 0c0.2 0 0.3 0 0.4 0 0.1 0 0.2 0 0.3 0.1 0.1 0 0.2 0 0.2 0.1 0.1 0 0.1 0.1 0.1 0.1 0 0 0.1 0.1 0.1 0.2l0 0c0 0.1 0 0.1 0 0.2l0 0 0 0.2 0 0.2 0 0c0 0.1 0 0.1 0 0.2 0 0.1 0 0.1 0 0.2l0 0c0 0.1 0 0.1 0 0.2 0 0.1 0 0.1 0.1 0.2h0.6v0c0 0-0.1 0-0.1-0.1 0 0-0.1-0.1-0.1-0.2l0 0c0-0.1 0-0.2 0-0.2 0-0.1 0-0.1 0-0.2 0-0.2 0-0.3 0-0.5 0-0.1 0-0.2-0.1-0.3l0 0c0-0.1 0-0.2-0.1-0.2 0-0.1-0.1-0.1-0.1-0.2 0 0-0.1-0.1-0.2-0.1 -0.1 0-0.2-0.1-0.3-0.1v0c0.1 0 0.2 0 0.3-0.1 0.1-0.1 0.2-0.1 0.3-0.2 0.1-0.1 0.1-0.2 0.2-0.3 0-0.1 0.1-0.2 0.1-0.4l0 0c0-0.1 0-0.3-0.1-0.4 0-0.1-0.1-0.2-0.1-0.3l0 0c-0.1-0.1-0.1-0.1-0.2-0.2 -0.1-0.1-0.2-0.1-0.3-0.1l0 0c-0.1 0-0.3-0.1-0.4-0.1C780.4 390.4 780.2 390.4 780 390.4L780 390.4zM778.9 390.9v1.4h1.4c0.3 0 0.5-0.1 0.7-0.2 0.1-0.1 0.2-0.3 0.2-0.5 0-0.1 0-0.2-0.1-0.3l0 0c0-0.1-0.1-0.2-0.2-0.2 -0.1-0.1-0.2-0.1-0.3-0.1 -0.1 0-0.3 0-0.5 0H778.9L778.9 390.9zM778.9 392.3v-1.4 0h0 1.3c0.2 0 0.3 0 0.5 0 0.1 0 0.2 0.1 0.3 0.1 0.1 0.1 0.1 0.1 0.2 0.2l0 0c0 0.1 0.1 0.2 0.1 0.3 0 0.2-0.1 0.4-0.2 0.5 -0.2 0.1-0.4 0.2-0.7 0.2L778.9 392.3 778.9 392.3 778.9 392.3 778.9 392.3zM779.8 396.4c-0.4 0-0.7 0-1.1-0.1 -0.3-0.1-0.7-0.2-1-0.4 -0.3-0.2-0.6-0.4-0.8-0.6 -0.2-0.2-0.5-0.5-0.7-0.8 -0.2-0.3-0.3-0.6-0.4-0.9 -0.1-0.3-0.1-0.6-0.1-1 0-0.3 0-0.7 0.1-1 0.1-0.3 0.2-0.6 0.4-0.9 0.2-0.3 0.4-0.6 0.6-0.8 0.3-0.2 0.5-0.4 0.8-0.6 0.3-0.2 0.6-0.3 1-0.4 0.3-0.1 0.7-0.1 1.1-0.1 0.4 0 0.7 0 1.1 0.1 0.3 0.1 0.7 0.2 1 0.4 0.3 0.2 0.6 0.4 0.8 0.6 0.3 0.2 0.5 0.5 0.6 0.8 0.2 0.3 0.3 0.6 0.4 0.9 0.1 0.3 0.1 0.6 0.1 1 0 0.3 0 0.7-0.1 1 -0.1 0.3-0.2 0.6-0.4 0.9s-0.4 0.6-0.6 0.8c-0.3 0.2-0.5 0.4-0.8 0.6 -0.3 0.2-0.6 0.3-1 0.4C780.5 396.3 780.2 396.4 779.8 396.4L779.8 396.4zM778.8 396.2c0.3 0.1 0.7 0.1 1.1 0.1 0.4 0 0.7 0 1.1-0.1 0.3-0.1 0.7-0.2 1-0.4 0.3-0.2 0.6-0.4 0.8-0.6 0.2-0.2 0.5-0.5 0.6-0.8 0.2-0.3 0.3-0.6 0.4-0.9 0.1-0.3 0.1-0.6 0.1-1 0-0.3 0-0.7-0.1-1 -0.1-0.3-0.2-0.6-0.4-0.9 -0.2-0.3-0.4-0.6-0.6-0.8 -0.2-0.2-0.5-0.4-0.8-0.6 -0.3-0.2-0.6-0.3-1-0.4 -0.3-0.1-0.7-0.1-1.1-0.1 -0.4 0-0.7 0-1.1 0.1 -0.3 0.1-0.7 0.2-1 0.4 -0.3 0.2-0.6 0.4-0.8 0.6 -0.2 0.2-0.5 0.5-0.6 0.8 -0.2 0.3-0.3 0.6-0.4 0.9 -0.1 0.3-0.1 0.6-0.1 1 0 0.3 0 0.7 0.1 1 0.1 0.3 0.2 0.6 0.4 0.9 0.2 0.3 0.4 0.6 0.6 0.8 0.3 0.2 0.5 0.4 0.8 0.6C778.1 396 778.4 396.1 778.8 396.2L778.8 396.2zM779.8 395.9c0.3 0 0.6 0 0.9-0.1 0.3-0.1 0.6-0.2 0.9-0.3 0.3-0.2 0.5-0.3 0.7-0.5 0.2-0.2 0.4-0.4 0.6-0.7 0.2-0.3 0.3-0.5 0.4-0.8 0.1-0.3 0.1-0.6 0.1-0.9l0 0c0-0.3 0-0.6-0.1-0.9 -0.1-0.3-0.2-0.5-0.4-0.8 -0.2-0.3-0.3-0.5-0.6-0.7 -0.2-0.2-0.5-0.4-0.7-0.5 -0.3-0.1-0.6-0.3-0.9-0.3 -0.3-0.1-0.6-0.1-0.9-0.1l0 0c-0.3 0-0.6 0-0.9 0.1 -0.3 0.1-0.6 0.2-0.9 0.3 -0.3 0.2-0.5 0.3-0.7 0.5 -0.2 0.2-0.4 0.4-0.6 0.7 -0.2 0.3-0.3 0.5-0.4 0.8 -0.1 0.3-0.1 0.6-0.1 0.9 0 0.3 0 0.6 0.1 0.9 0.1 0.3 0.2 0.5 0.4 0.8 0.2 0.3 0.4 0.5 0.6 0.7s0.5 0.4 0.7 0.5c0.3 0.1 0.6 0.3 0.9 0.3C779.2 395.9 779.5 395.9 779.8 395.9L779.8 395.9 779.8 395.9zM780.8 395.8c-0.3 0.1-0.6 0.1-0.9 0.1l0 0c-0.3 0-0.6 0-0.9-0.1 -0.3-0.1-0.6-0.2-0.9-0.3 -0.3-0.1-0.5-0.3-0.8-0.5 -0.2-0.2-0.4-0.4-0.6-0.7 -0.2-0.3-0.3-0.5-0.4-0.8 -0.1-0.3-0.1-0.6-0.1-0.9 0-0.3 0-0.6 0.1-0.9 0.1-0.3 0.2-0.6 0.4-0.8 0.2-0.3 0.4-0.5 0.6-0.7 0.2-0.2 0.5-0.4 0.8-0.5s0.6-0.3 0.9-0.3c0.3-0.1 0.6-0.1 0.9-0.1l0 0c0.3 0 0.6 0 0.9 0.1 0.3 0.1 0.6 0.2 0.9 0.3l0 0c0.3 0.2 0.5 0.3 0.7 0.5 0.2 0.2 0.4 0.4 0.6 0.7 0.2 0.3 0.3 0.5 0.4 0.8 0.1 0.3 0.1 0.6 0.1 0.9l0 0c0 0.3 0 0.6-0.1 0.9 -0.1 0.3-0.2 0.5-0.4 0.8 -0.2 0.3-0.3 0.5-0.6 0.7 -0.2 0.2-0.5 0.4-0.7 0.5C781.4 395.6 781.1 395.8 780.8 395.8L780.8 395.8z"/><path class="st0" d="M291.8 264.4c3.5 4.9 10.2 10.2 14.3 14.7 1.9 1.9 6.5 1.6 9.1 4.2 2.7 2.7 24.3 21.7 18.1 24.2l9.4 0.1L319 277.2 291.8 264.4 291.8 264.4z"/><path class="st0" d="M358.4 393.3c-3.7 2.6-5.6 3.7-9.5 3 6.9 18.7 125.5 27.5 202.3 44.4 0-0.9 0-1.9 0-2.8 -59-9-117.6-19.4-175.5-31.9C367.6 402.9 361.8 398.8 358.4 393.3L358.4 393.3z"/><path class="st0" d="M739.3 395.3c3.7 2.6 7.9 1.6 11.8 1 -6.8 18.7-123.5 27-200.3 43.9 0-0.9 0.4-1.8 0.4-2.8 59-9 115.3-19 173.2-31.6C732.4 402.9 735.9 400.8 739.3 395.3L739.3 395.3z"/><path class="st0" d="M809.3 262.9c-6.3 7-11.9 13.5-18.9 19.8 -2.7 2.5-7.1 4.4-11.2 5.9 -5.8 6.9-14.9 15.8-14.6 18.9 -2.4-0.1-4.8-0.2-7.2-0.3 7.5-10 15-20.1 22.6-30.1C789.8 272.5 799.6 267.7 809.3 262.9L809.3 262.9z"/><polygon class="st0" points="336.6 285.8 376.6 289.2 388.7 304.8 394.2 304.8 377.8 285.8 "/><polygon class="st0" points="350.5 310 393 314.1 391.3 310 "/><polygon class="st0" points="358.6 328.3 391.9 331.8 390.8 328.5 "/><polygon class="st0" points="360.7 352.2 398.9 355.5 397.7 352.1 "/><polygon class="st0" points="372.6 393.8 410.8 397 409.7 393.7 "/><polygon class="st0" points="715.7 293.4 711.7 298.1 756.7 293.3 "/><polygon class="st0" points="705.8 322 745.9 316.8 706.9 316.7 "/><polygon class="st0" points="701 357.3 741.8 352.4 701.7 352.3 "/><polygon class="st0" points="696.5 381.3 736 375.6 696.8 375.6 "/><polygon class="st0" points="691.8 398.2 736.1 393.9 693.1 393.4 "/></svg>