<?xml version="1.0" encoding="UTF-8" standalone="no"?>
<!-- Generator: Adobe Illustrator 19.0.0, SVG Export Plug-In . SVG Version: 6.00 Build 0)  -->

<svg
   xmlns:dc="http://purl.org/dc/elements/1.1/"
   xmlns:cc="http://creativecommons.org/ns#"
   xmlns:rdf="http://www.w3.org/1999/02/22-rdf-syntax-ns#"
   xmlns:svg="http://www.w3.org/2000/svg"
   xmlns="http://www.w3.org/2000/svg"
   xmlns:sodipodi="http://sodipodi.sourceforge.net/DTD/sodipodi-0.dtd"
   xmlns:inkscape="http://www.inkscape.org/namespaces/inkscape"
   version="1.1"
   id="Layer_1"
   x="0px"
   y="0px"
   viewBox="0 0 675 675"
   xml:space="preserve"
   sodipodi:docname="compensa.svg"
   inkscape:version="0.92.1 r15371"
   width="675"
   height="675"><metadata
     id="metadata45"><rdf:RDF><cc:Work
         rdf:about=""><dc:format>image/svg+xml</dc:format><dc:type
           rdf:resource="http://purl.org/dc/dcmitype/StillImage" /><dc:title></dc:title></cc:Work></rdf:RDF></metadata><defs
     id="defs43" /><sodipodi:namedview
     pagecolor="#ffffff"
     bordercolor="#666666"
     borderopacity="1"
     objecttolerance="10"
     gridtolerance="10"
     guidetolerance="10"
     inkscape:pageopacity="0"
     inkscape:pageshadow="2"
     inkscape:window-width="1920"
     inkscape:window-height="1017"
     id="namedview41"
     showgrid="false"
     inkscape:zoom="1.1051852"
     inkscape:cx="454.5851"
     inkscape:cy="304.53447"
     inkscape:window-x="-8"
     inkscape:window-y="-8"
     inkscape:window-maximized="1"
     inkscape:current-layer="Layer_1" /><style
     type="text/css"
     id="style2">
	.st0{fill:#EC2227;}
	.st1{fill:#010101;}
	.st2{fill:#048743;}
</style><g
     id="XMLID_8_"
     style="fill:#000000"
     transform="translate(0,148.52209)"><g
       id="XMLID_198_"
       style="fill:#000000"><g
         id="XMLID_199_"
         style="fill:#000000"><g
           id="XMLID_247_"
           style="fill:#000000"><rect
             id="XMLID_173_"
             x="39.299999"
             y="206.5"
             class="st0"
             width="596.20001"
             height="9"
             style="fill:#000000" /></g><g
           id="XMLID_200_"
           style="fill:#000000"><path
             id="XMLID_245_"
             class="st1"
             d="M 54.2,269.7 H 50.4 L 39.5,237.8 h 5.2 l 7.7,23.1 7.7,-23.1 h 5.4 z"
             style="fill:#000000"
             inkscape:connector-curvature="0" /><path
             id="XMLID_243_"
             class="st1"
             d="m 70.1,269.7 v -31.9 h 5 v 31.9 z"
             style="fill:#000000"
             inkscape:connector-curvature="0" /><path
             id="XMLID_241_"
             class="st1"
             d="m 84.1,269.7 v -31.9 h 21.2 V 242 H 89 v 9.4 h 13.8 v 4.4 H 89 v 9.6 h 16.3 v 4.4 H 84.1 Z"
             style="fill:#000000"
             inkscape:connector-curvature="0" /><path
             id="XMLID_239_"
             class="st1"
             d="m 132.8,269.7 -15.3,-22.4 v 22.4 h -5 v -31.9 h 4.6 l 15.3,22.4 v -22.4 h 5 v 31.9 z"
             style="fill:#000000"
             inkscape:connector-curvature="0" /><path
             id="XMLID_237_"
             class="st1"
             d="m 166.7,269.7 -15.5,-22.4 v 22.4 h -5 v -31.9 h 4.6 l 15.3,22.4 v -22.4 h 5 v 31.9 z"
             style="fill:#000000"
             inkscape:connector-curvature="0" /><path
             id="XMLID_234_"
             class="st1"
             d="m 199.4,269.7 -2.3,-6.5 h -13.2 l -2.3,6.5 h -5.4 l 12.2,-31.9 h 4 l 12.2,31.9 z m -9,-24.9 -5.2,14.2 h 10.3 z"
             style="fill:#000000"
             inkscape:connector-curvature="0" /><path
             id="XMLID_232_"
             class="st1"
             d="m 221,269.7 v -31.9 h 5 v 31.9 z"
             style="fill:#000000"
             inkscape:connector-curvature="0" /><path
             id="XMLID_230_"
             class="st1"
             d="M 255.3,269.7 240,247.3 v 22.4 h -5 v -31.9 h 4.6 l 15.3,22.4 v -22.4 h 5 v 31.9 z"
             style="fill:#000000"
             inkscape:connector-curvature="0" /><path
             id="XMLID_228_"
             class="st1"
             d="m 277.4,269.8 c -5,0 -8.6,-1.1 -11.9,-4.2 l 3.4,-3.3 c 2.5,2.3 5.2,3.1 8.4,3.1 4.4,0 6.9,-1.7 6.9,-5 0,-1.3 -0.4,-2.5 -1.3,-3.3 -0.8,-0.8 -1.7,-1.1 -3.6,-1.3 l -4,-0.6 c -2.7,-0.4 -4.8,-1.3 -6.3,-2.5 -1.7,-1.5 -2.5,-3.4 -2.5,-6.1 0,-5.5 4.2,-9.4 11.1,-9.4 4.4,0 7.5,1.1 10.3,3.6 l -3.3,3.1 c -2.1,-1.9 -4.4,-2.5 -7.3,-2.5 -4,0 -6.1,2.1 -6.1,5 0,1.1 0.4,2.1 1.3,2.9 0.8,0.8 2.1,1.3 3.8,1.5 l 3.8,0.6 c 3.1,0.4 4.8,1.1 6.1,2.3 1.9,1.5 2.7,3.8 2.7,6.5 0.8,6.2 -4.4,9.6 -11.5,9.6 z"
             style="fill:#000000"
             inkscape:connector-curvature="0" /><path
             id="XMLID_226_"
             class="st1"
             d="m 307.9,269.8 c -6.7,0 -11.9,-4.4 -11.9,-11.1 v -21 h 5.2 v 20.8 c 0,4.2 2.7,6.9 6.9,6.9 4.2,0 6.9,-2.7 6.9,-6.9 v -20.8 h 5.2 v 21.2 c -0.3,6.5 -5.7,10.9 -12.3,10.9 z"
             style="fill:#000000"
             inkscape:connector-curvature="0" /><path
             id="XMLID_223_"
             class="st1"
             d="m 346.7,269.7 -7.1,-13.4 h -6.3 v 13.4 h -5 v -31.9 h 13 c 6.3,0 10.3,3.8 10.3,9.4 0,4.6 -2.9,7.5 -6.7,8.4 l 7.7,14.2 c 0,-0.1 -5.9,-0.1 -5.9,-0.1 z m -6.1,-27.8 h -7.5 v 9.9 h 7.5 c 3.4,0 5.7,-1.9 5.7,-5 0,-3 -2.1,-4.9 -5.7,-4.9 z"
             style="fill:#000000"
             inkscape:connector-curvature="0" /><path
             id="XMLID_220_"
             class="st1"
             d="m 378.2,269.7 -2.3,-6.5 h -13.2 l -2.3,6.5 H 355 l 12.2,-31.9 h 4 l 12.2,31.9 z m -8.9,-24.9 -5.2,14.2 h 10.3 z"
             style="fill:#000000"
             inkscape:connector-curvature="0" /><path
             id="XMLID_218_"
             class="st1"
             d="m 408.8,269.7 -15.5,-22.4 v 22.4 h -5.2 v -31.9 h 4.6 l 15.5,22.4 v -22.4 h 5 v 31.9 z"
             style="fill:#000000"
             inkscape:connector-curvature="0" /><path
             id="XMLID_216_"
             class="st1"
             d="m 433.1,269.8 c -3.4,0 -6.5,-1.1 -8.8,-3.4 -3.3,-3.1 -3.3,-6.7 -3.3,-12.8 0,-6.1 0,-9.8 3.3,-12.8 2.3,-2.1 5.4,-3.4 8.8,-3.4 4.2,0 6.9,1.3 9.4,3.8 l -3.4,3.3 c -1.7,-1.7 -3.3,-2.7 -5.9,-2.7 -1.9,0 -3.8,0.8 -5,1.9 -1.5,1.7 -1.9,3.6 -1.9,9.9 0,6.5 0.4,8.2 1.9,9.9 1.1,1.1 2.9,1.9 5,1.9 2.7,0 4.2,-1 5.9,-2.7 l 3.4,3.3 c -2.7,2.5 -5.3,3.8 -9.4,3.8 z"
             style="fill:#000000"
             inkscape:connector-curvature="0" /><path
             id="XMLID_214_"
             class="st1"
             d="m 449.4,269.7 v -31.9 h 21.2 v 4.2 h -16.3 v 9.4 h 13.8 v 4.4 h -13.8 v 9.6 h 16.3 v 4.4 h -21.2 z"
             style="fill:#000000"
             inkscape:connector-curvature="0" /><path
             id="XMLID_212_"
             class="st1"
             d="m 508.7,266.2 c -2.3,2.3 -5.4,3.6 -9,3.6 -3.4,0 -6.5,-1.1 -8.8,-3.4 -3.3,-3.1 -3.3,-6.7 -3.3,-12.8 0,-6.1 0,-9.8 3.3,-12.8 2.3,-2.1 5.2,-3.4 8.8,-3.4 4.6,0 7.1,1.3 10.1,4.2 l -3.4,3.3 c -2.1,-2.1 -3.6,-3.1 -6.7,-3.1 -1.9,0 -3.8,0.8 -5,1.9 -1.7,1.7 -1.9,3.4 -1.9,9.9 0,6.5 0.4,8.2 1.9,9.9 1.1,1.1 3.1,1.9 5,1.9 2.1,0 4,-0.8 5.4,-2.3 1.1,-1.3 1.7,-3.1 1.7,-5.2 v -1.7 h -6.9 V 252 H 512 v 4.8 c -0.2,4.4 -0.8,7.1 -3.3,9.4 z"
             style="fill:#000000"
             inkscape:connector-curvature="0" /><path
             id="XMLID_209_"
             class="st1"
             d="m 537.4,269.7 -7.1,-13.4 H 524 v 13.4 h -5 v -31.9 h 12.8 c 6.3,0 10.3,3.8 10.3,9.4 0,4.6 -2.9,7.5 -6.7,8.4 l 7.7,14.2 c 0,-0.1 -5.7,-0.1 -5.7,-0.1 z m -5.8,-27.8 h -7.5 v 9.9 h 7.5 c 3.4,0 5.7,-1.9 5.7,-5 -0.1,-3 -2.2,-4.9 -5.7,-4.9 z"
             style="fill:#000000"
             inkscape:connector-curvature="0" /><path
             id="XMLID_206_"
             class="st1"
             d="m 569.5,266.4 c -2.3,2.1 -5.2,3.4 -8.8,3.4 -3.6,0 -6.5,-1.1 -8.8,-3.4 -3.3,-3.1 -3.3,-6.7 -3.3,-12.8 0,-6.1 0,-9.8 3.3,-12.8 2.3,-2.1 5.2,-3.4 8.8,-3.4 3.6,0 6.5,1.1 8.8,3.4 3.3,3.1 3.3,6.7 3.3,12.8 -0.2,6.1 0,9.7 -3.3,12.8 z m -3.8,-22.8 c -1.1,-1.1 -3.1,-1.9 -5,-1.9 -1.9,0 -3.8,0.8 -5,1.9 -1.7,1.7 -1.9,3.4 -1.9,9.9 0,6.5 0.4,8.2 1.9,9.9 1.1,1.1 3.1,1.9 5,1.9 1.9,0 3.8,-0.8 5,-1.9 1.7,-1.7 1.9,-3.4 1.9,-9.9 0.2,-6.2 -0.4,-8.1 -1.9,-9.9 z"
             style="fill:#000000"
             inkscape:connector-curvature="0" /><path
             id="XMLID_204_"
             class="st1"
             d="m 591.7,269.8 c -6.7,0 -11.9,-4.4 -11.9,-11.1 v -21 h 5 v 20.8 c 0,4.2 2.7,6.9 6.9,6.9 4.2,0 6.9,-2.7 6.9,-6.9 v -20.8 h 5 v 21.2 c 0,6.5 -5.2,10.9 -11.9,10.9 z"
             style="fill:#000000"
             inkscape:connector-curvature="0" /><path
             id="XMLID_201_"
             class="st1"
             d="M 624.6,257 H 617 v 12.6 h -5 v -31.9 h 12.6 c 6.5,0 10.7,4.2 10.7,9.8 0.2,5.3 -4.2,9.5 -10.7,9.5 z m -0.4,-15.1 H 617 v 10.7 h 7.3 c 3.4,0 5.9,-1.9 5.9,-5.4 0,-3.2 -2.2,-5.3 -6,-5.3 z"
             style="fill:#000000"
             inkscape:connector-curvature="0" /></g></g></g><g
       id="Compensa_5_"
       style="fill:#000000"><path
         id="XMLID_183_"
         class="st2"
         d="m 71.2,177.3 c -13,0 -22.2,-8.4 -22.2,-20.5 0,-11.9 9.4,-20.7 21.8,-20.7 6.3,0 12.2,1.7 18.9,5.7 l 0.8,0.4 v -9.8 l -0.4,-0.2 c -7.8,-3.3 -13.6,-4.6 -19.5,-4.6 -18,0 -31.2,12.4 -31.2,29.6 0,10.9 8.4,28.1 30.8,28.1 9.8,0 15.9,-2.5 20.5,-5 l 0.4,-0.2 v -9.9 l -0.8,0.8 c -6.1,4.2 -12.9,6.3 -19.1,6.3 z m 55.7,-49.4 c -17.4,0 -30.6,12.4 -30.6,28.9 0,14 10.7,28.9 30.4,28.9 20.3,0 30.8,-14.5 30.8,-28.9 0,-16.8 -12.8,-28.9 -30.6,-28.9 z m 0,49.4 c -12.1,0 -21.2,-8.8 -21.2,-20.7 0,-11.9 9,-20.5 21.2,-20.5 12.4,0 21.4,8.6 21.4,20.5 0,11.9 -9.2,20.7 -21.4,20.7 z m 64.8,-26.2 c -0.8,-1 -18.4,-22.6 -18.4,-22.6 h -8.2 v 56.2 h 9 c 0,0 0,-40 0,-42.3 1.3,1.7 16.6,20.7 16.6,20.7 h 1.7 c 0,0 15.3,-18.9 16.6,-20.7 0,2.3 0,42.3 0,42.3 h 9 v -56.2 h -8.2 c 0.3,0 -17.5,21.6 -18.1,22.6 z m 56.1,-22.6 h -18 v 56.2 h 9 c 0,0 0,-23 0,-23.9 1,0 7.8,0 7.8,0 12.1,0 19.3,-5.9 19.3,-16.1 0.1,-7.6 -4.7,-16.2 -18.1,-16.2 z m -0.4,24.3 c 0,0 -7.7,0 -8.6,0 v -16.1 c 1,0 9,0 9,0 8,0 9,5.5 9,8 0,5 -3.7,8.1 -9.4,8.1 z m 34.4,7.8 c 1,0 23,0 23,0 v -8.2 c 0,0 -22,0 -23,0 v -15.7 c 1,0 23.7,0 23.7,0 v -8.2 h -32.7 v 56.2 h 33.5 v -8 c 0,0 -23.5,0 -24.5,0 z m 76.9,10 c -1.7,-1.9 -37.1,-42.1 -37.1,-42.1 h -7.1 v 56.2 h 8.6 c 0,0 0,-39.2 0,-41.7 1.7,1.9 36.7,41.7 36.7,41.7 h 7.7 v -56.2 h -8.8 c 0,0 0,39.6 0,42.1 z m 36,-18.8 c -5.2,-2.9 -9.6,-5.4 -9.6,-9.8 0,-3.6 3.4,-6.1 8.4,-6.1 4.6,0 8.8,1.9 12.8,5.5 l 0.8,0.8 v -10.5 l -0.2,-0.2 c -4,-2.7 -8.4,-4 -12.8,-4 -10.5,0 -17.6,5.9 -17.6,15.3 0,8.4 7.3,12.6 13.6,16.6 5.5,3.3 10.5,6.3 10.5,11.3 0,2.5 -2.3,6.5 -8.6,6.5 -5.4,0 -10.3,-2.7 -14.3,-7.8 l -1,-1.1 V 180 l 0.2,0.2 c 4.8,3.4 9.9,5.2 16.1,5.2 9.4,0 16.3,-6.5 16.3,-15.5 -0.1,-10 -7.7,-14.2 -14.6,-18.1 z m 47.6,-23.5 H 436 l -24.5,56.6 h 9.4 c 0,0 6.9,-15.7 7.1,-16.3 h 23.1 c 0.2,0.6 7.5,16.3 7.5,16.3 h 9.4 z m -11.1,32.1 c 0.6,-1.1 6.9,-16.4 7.7,-18.2 0.8,1.7 7.7,17 8.2,18.2 z"
         style="fill:#000000"
         inkscape:connector-curvature="0" /><g
         id="XMLID_175_"
         style="fill:#000000"><path
           id="XMLID_7_"
           class="st2"
           d="m 500.3,184.5 3.3,0.4 c 0,0 48.2,-0.4 52.6,-0.4 -18,-13 -43.4,-31.6 -45.1,-32.5 -2.5,-1.1 -5.2,-1.7 -7.7,-1.7 -9.6,0 -16.8,7.5 -16.8,17 -0.1,10.2 6.8,15.9 13.7,17.2 z"
           style="fill:#000000"
           inkscape:connector-curvature="0" /><path
           id="XMLID_6_"
           class="st2"
           d="m 534.3,121.8 c -7.7,-5.5 -18,-3.8 -23.7,3.8 -2.5,3.3 -3.4,6.7 -3.4,10.1 0,4.6 1.9,8.8 4.8,11.9 l 2.3,2.1 c 0,0 39.2,28.1 42.7,30.6 -6.7,-21 -16.4,-51.1 -17.4,-52.8 -1.5,-2.3 -3.2,-4.2 -5.3,-5.7 z"
           style="fill:#000000"
           inkscape:connector-curvature="0" /><path
           id="XMLID_5_"
           class="st2"
           d="m 556.3,109 c -8.4,2.7 -12.1,9.9 -12.1,16.4 0,0.8 0,1.3 0.2,2.1 l 0.6,3.1 c 0,0 14.7,45.9 16.1,49.9 7.1,-21 17,-50.9 17.4,-52.8 0,-0.8 0.2,-1.5 0.2,-2.3 0,-1.9 -0.2,-3.8 -0.8,-5.5 -3.2,-9 -12.6,-13.8 -21.6,-10.9 z"
           style="fill:#000000"
           inkscape:connector-curvature="0" /><path
           id="XMLID_4_"
           class="st2"
           d="m 618.7,150.5 c -2.7,0 -5.2,0.6 -7.8,1.7 -1.5,0.8 -27.2,19.3 -44.9,32.3 4.2,0 52.6,0.4 52.6,0.4 0,0 3.1,-0.4 3.3,-0.4 6.9,-1.3 14,-7.3 14,-17 -0.2,-9.5 -7.9,-17 -17.2,-17 z"
           style="fill:#000000"
           inkscape:connector-curvature="0" /><path
           id="XMLID_3_"
           class="st2"
           d="m 614.7,135.8 c 0,-3.3 -1,-6.7 -3.4,-10.1 -5.5,-7.8 -16.1,-9.4 -23.7,-3.8 -2.1,1.5 -3.8,3.4 -5.4,5.9 -1,1.7 -12.2,36.9 -17.4,52.6 8.4,-6.1 42.7,-30.6 42.7,-30.6 0,0 2.3,-2.1 2.5,-2.3 2.7,-2.9 4.7,-7.1 4.7,-11.7 z"
           style="fill:#000000"
           inkscape:connector-curvature="0" /><g
           id="XMLID_176_"
           style="fill:#000000"><path
             id="XMLID_2_"
             class="st2"
             d="M 571.4,184.2"
             style="fill:#000000"
             inkscape:connector-curvature="0" /></g></g></g></g></svg>