<?xml version="1.0" encoding="UTF-8" standalone="no"?>
<!-- Created with Inkscape (http://www.inkscape.org/) -->

<svg
   xmlns:dc="http://purl.org/dc/elements/1.1/"
   xmlns:cc="http://creativecommons.org/ns#"
   xmlns:rdf="http://www.w3.org/1999/02/22-rdf-syntax-ns#"
   xmlns:svg="http://www.w3.org/2000/svg"
   xmlns="http://www.w3.org/2000/svg"
   xmlns:sodipodi="http://sodipodi.sourceforge.net/DTD/sodipodi-0.dtd"
   xmlns:inkscape="http://www.inkscape.org/namespaces/inkscape"
   width="100mm"
   height="100mm"
   viewBox="0 0 100 100"
   version="1.1"
   id="svg8"
   inkscape:version="0.92.1 r15371"
   sodipodi:docname="gdb.svg">
  <defs
     id="defs2">
    <clipPath
       id="clipPath4498"
       clipPathUnits="userSpaceOnUse">
      <path
         inkscape:connector-curvature="0"
         id="path4496"
         d="M 0,425.2 H 425.2 V 0 H 0 Z" />
    </clipPath>
  </defs>
  <sodipodi:namedview
     id="base"
     pagecolor="#ffffff"
     bordercolor="#888888"
     borderopacity="1"
     inkscape:pageopacity="0.0"
     inkscape:pageshadow="2"
     inkscape:zoom="1.979899"
     inkscape:cx="177.70883"
     inkscape:cy="185.8555"
     inkscape:document-units="mm"
     inkscape:current-layer="layer1"
     showgrid="false"
     inkscape:showpageshadow="false"
     borderlayer="true"
     inkscape:window-width="1920"
     inkscape:window-height="1017"
     inkscape:window-x="-8"
     inkscape:window-y="-8"
     inkscape:window-maximized="1" />
  <metadata
     id="metadata5">
    <rdf:RDF>
      <cc:Work
         rdf:about="">
        <dc:format>image/svg+xml</dc:format>
        <dc:type
           rdf:resource="http://purl.org/dc/dcmitype/StillImage" />
        <dc:title></dc:title>
      </cc:Work>
    </rdf:RDF>
  </metadata>
  <g
     inkscape:label="Layer 1"
     inkscape:groupmode="layer"
     id="layer1"
     transform="translate(0,-197)">
    <g
       transform="matrix(0.39516426,0,0,-0.39516426,-34.658864,330.86275)"
       inkscape:label="logo_GDB_duocolor"
       id="g4490"
       style="fill:#000000">
      <g
         id="g4492"
         style="fill:#000000">
        <g
           clip-path="url(#clipPath4498)"
           id="g4494"
           style="fill:#000000">
          <g
             transform="translate(103.0142,150.3578)"
             id="g4500"
             style="fill:#000000">
            <path
               inkscape:connector-curvature="0"
               id="path4502"
               style="fill:#000000;fill-opacity:1;fill-rule:nonzero;stroke:none"
               d="m 0,0 c 0,-0.319 -0.133,-0.551 -0.398,-0.697 -0.133,-0.08 -0.292,-0.147 -0.479,-0.2 -0.186,-0.053 -0.381,-0.096 -0.587,-0.129 -0.206,-0.033 -0.415,-0.057 -0.628,-0.07 -0.213,-0.013 -0.405,-0.02 -0.578,-0.02 -0.916,0 -1.816,0.163 -2.699,0.488 -0.884,0.326 -1.724,0.874 -2.521,1.644 -0.172,0.173 -0.382,0.425 -0.627,0.757 -0.246,0.332 -0.478,0.734 -0.698,1.206 -0.219,0.471 -0.405,1.006 -0.557,1.603 -0.153,0.598 -0.23,1.249 -0.23,1.953 0,1.169 0.183,2.188 0.548,3.058 0.366,0.87 0.84,1.538 1.425,2.003 0.372,0.292 0.747,0.527 1.126,0.707 0.378,0.179 0.747,0.312 1.105,0.398 0.359,0.087 0.708,0.143 1.046,0.17 0.339,0.026 0.668,0.04 0.986,0.04 0.638,0 1.219,-0.05 1.744,-0.15 0.525,-0.1 0.983,-0.226 1.375,-0.379 0.391,-0.152 0.72,-0.325 0.986,-0.518 0.265,-0.192 0.458,-0.381 0.578,-0.567 0.146,-0.239 0.249,-0.482 0.308,-0.728 0.06,-0.245 0.097,-0.441 0.11,-0.587 0.026,-0.199 0.073,-0.299 0.14,-0.299 0.066,0 0.112,0.03 0.139,0.089 0.026,0.06 0.04,0.17 0.04,0.329 0,0.492 0.006,0.904 0.02,1.236 0.013,0.332 0.03,0.604 0.05,0.816 0.02,0.213 0.036,0.379 0.049,0.498 0.014,0.12 0.02,0.213 0.02,0.279 0,0.04 -0.013,0.077 -0.04,0.11 -0.026,0.033 -0.093,0.056 -0.199,0.07 -0.252,0.013 -0.531,0.036 -0.837,0.07 -0.305,0.033 -0.564,0.076 -0.777,0.129 -0.093,0.013 -0.245,0.04 -0.458,0.08 -0.213,0.04 -0.458,0.079 -0.737,0.119 -0.279,0.04 -0.578,0.073 -0.897,0.1 -0.318,0.026 -0.637,0.04 -0.956,0.04 -0.385,0 -0.794,-0.014 -1.225,-0.04 -0.432,-0.027 -0.874,-0.083 -1.325,-0.169 -0.452,-0.087 -0.91,-0.213 -1.375,-0.379 -0.465,-0.166 -0.923,-0.389 -1.375,-0.668 -0.438,-0.279 -0.86,-0.627 -1.265,-1.045 -0.405,-0.419 -0.76,-0.904 -1.066,-1.455 -0.305,-0.551 -0.548,-1.165 -0.727,-1.843 -0.179,-0.677 -0.269,-1.414 -0.269,-2.212 0,-0.624 0.066,-1.222 0.199,-1.793 0.133,-0.571 0.309,-1.099 0.528,-1.584 0.219,-0.484 0.472,-0.923 0.757,-1.314 0.286,-0.392 0.582,-0.721 0.887,-0.987 0.558,-0.478 1.139,-0.86 1.743,-1.145 0.605,-0.286 1.202,-0.502 1.794,-0.648 0.591,-0.146 1.145,-0.239 1.663,-0.279 0.518,-0.039 0.97,-0.06 1.355,-0.06 0.292,0 0.614,0.014 0.966,0.04 0.352,0.027 0.717,0.077 1.096,0.15 0.379,0.073 0.754,0.166 1.126,0.279 0.371,0.112 0.717,0.255 1.036,0.428 0.053,0.04 0.099,0.073 0.139,0.1 0.04,0.026 0.066,0.076 0.08,0.149 0.013,0.073 0.023,0.173 0.03,0.299 0.007,0.126 0.01,0.302 0.01,0.528 v 2.231 1.116 c 0,0.319 0.013,0.638 0.04,0.956 0.026,0.346 0.089,0.608 0.189,0.787 0.1,0.18 0.282,0.296 0.548,0.349 0.119,0.027 0.216,0.043 0.289,0.05 0.073,0.006 0.142,0.01 0.209,0.01 0.106,0 0.159,0.04 0.159,0.12 0,0.106 -0.106,0.159 -0.319,0.159 C 2.643,5.778 2.464,5.774 2.251,5.768 2.039,5.761 1.833,5.755 1.634,5.748 1.435,5.741 1.259,5.735 1.106,5.728 0.953,5.721 0.864,5.718 0.837,5.718 0.81,5.718 0.721,5.721 0.568,5.728 0.415,5.735 0.229,5.741 0.01,5.748 c -0.219,0.007 -0.455,0.013 -0.707,0.02 -0.253,0.006 -0.492,0.01 -0.718,0.01 -0.212,0 -0.318,-0.053 -0.318,-0.159 0,-0.08 0.053,-0.12 0.159,-0.12 0.093,0 0.209,-0.004 0.349,-0.01 0.139,-0.007 0.249,-0.023 0.329,-0.05 C -0.697,5.386 -0.538,5.323 -0.418,5.25 -0.299,5.177 -0.209,5.071 -0.149,4.931 -0.089,4.792 -0.05,4.599 -0.03,4.353 -0.01,4.108 0,3.786 0,3.387 Z" />
          </g>
          <g
             transform="translate(112.3188,162.7305)"
             id="g4504"
             style="fill:#000000">
            <path
               inkscape:connector-curvature="0"
               id="path4506"
               style="fill:#000000;fill-opacity:1;fill-rule:nonzero;stroke:none"
               d="m 0,0 c 0,0.119 0.053,0.199 0.16,0.239 0.106,0.027 0.278,0.053 0.517,0.08 0.239,0.026 0.512,0.039 0.817,0.039 1.076,0 1.919,-0.351 2.53,-1.055 0.611,-0.705 0.917,-1.681 0.917,-2.929 0,-0.757 -0.116,-1.398 -0.349,-1.923 C 4.36,-6.073 4.071,-6.455 3.726,-6.694 3.5,-6.854 3.254,-6.957 2.989,-7.003 2.723,-7.05 2.47,-7.073 2.231,-7.073 c -0.438,0 -0.859,0.03 -1.265,0.09 -0.405,0.059 -0.68,0.136 -0.827,0.229 C 0.046,-6.701 0,-6.621 0,-6.515 Z m -1.594,-8.288 c 0,-0.957 -0.003,-1.81 -0.01,-2.561 -0.006,-0.75 -0.036,-1.338 -0.09,-1.763 -0.039,-0.292 -0.096,-0.538 -0.169,-0.737 -0.073,-0.199 -0.209,-0.319 -0.408,-0.359 -0.093,-0.026 -0.193,-0.046 -0.299,-0.06 -0.106,-0.013 -0.206,-0.019 -0.299,-0.019 -0.106,0 -0.159,-0.04 -0.159,-0.12 0,-0.106 0.106,-0.159 0.318,-0.159 0.147,0 0.326,0.003 0.538,0.01 0.213,0.006 0.419,0.013 0.618,0.019 0.199,0.007 0.368,0.014 0.508,0.021 0.139,0.006 0.209,0.01 0.209,0.01 0.027,0 0.117,-0.004 0.269,-0.01 0.153,-0.007 0.345,-0.014 0.578,-0.021 0.232,-0.006 0.488,-0.013 0.767,-0.019 0.279,-0.007 0.558,-0.01 0.837,-0.01 0.212,0 0.319,0.053 0.319,0.159 0,0.08 -0.054,0.12 -0.16,0.12 -0.093,0 -0.229,0.006 -0.408,0.019 -0.18,0.014 -0.342,0.034 -0.488,0.06 -0.306,0.04 -0.505,0.16 -0.598,0.359 -0.093,0.199 -0.153,0.445 -0.18,0.737 -0.053,0.425 -0.082,1.013 -0.089,1.763 C 0.003,-10.098 0,-9.245 0,-8.288 v 0.478 c 0,0.106 0.046,0.159 0.139,0.159 l 2.451,-0.04 c 0.093,0 0.179,-0.04 0.259,-0.119 0.093,-0.133 0.222,-0.309 0.389,-0.528 0.165,-0.219 0.345,-0.462 0.538,-0.727 0.192,-0.266 0.395,-0.545 0.607,-0.837 0.213,-0.292 0.425,-0.578 0.638,-0.857 0.571,-0.757 1.056,-1.378 1.454,-1.863 0.399,-0.485 0.81,-0.84 1.236,-1.066 0.252,-0.146 0.531,-0.245 0.836,-0.298 0.306,-0.054 0.737,-0.08 1.295,-0.08 h 1.415 c 0.186,0 0.312,0.01 0.379,0.029 0.066,0.021 0.099,0.064 0.099,0.13 0,0.08 -0.06,0.12 -0.179,0.12 -0.067,0 -0.166,0.003 -0.299,0.01 -0.133,0.006 -0.292,0.023 -0.478,0.049 -0.253,0.04 -0.585,0.147 -0.996,0.319 -0.412,0.173 -0.89,0.545 -1.435,1.116 -0.584,0.624 -1.215,1.368 -1.893,2.232 -0.677,0.863 -1.428,1.819 -2.251,2.868 0.89,0.824 1.514,1.611 1.873,2.361 0.358,0.751 0.538,1.498 0.538,2.242 0,0.345 -0.05,0.664 -0.15,0.956 C 6.366,-1.342 6.246,-1.083 6.106,-0.857 5.967,-0.631 5.818,-0.435 5.658,-0.269 5.499,-0.103 5.36,0.026 5.24,0.119 4.709,0.505 4.128,0.747 3.497,0.847 2.866,0.946 2.231,0.996 1.594,0.996 1.435,0.996 1.235,0.993 0.996,0.986 0.757,0.979 0.515,0.973 0.269,0.966 0.023,0.959 -0.196,0.953 -0.388,0.946 -0.581,0.94 -0.704,0.936 -0.757,0.936 c -0.027,0 -0.116,0.004 -0.269,0.01 -0.153,0.007 -0.339,0.013 -0.558,0.02 -0.219,0.007 -0.455,0.013 -0.707,0.02 -0.252,0.007 -0.492,0.01 -0.718,0.01 -0.212,0 -0.318,-0.053 -0.318,-0.159 0,-0.08 0.053,-0.12 0.159,-0.12 0.093,0 0.209,-0.003 0.349,-0.01 0.139,-0.007 0.249,-0.023 0.329,-0.05 0.332,-0.066 0.551,-0.185 0.657,-0.358 0.106,-0.173 0.173,-0.432 0.199,-0.777 0.014,-0.16 0.024,-0.329 0.03,-0.508 0.007,-0.18 0.01,-0.422 0.01,-0.728 v -1.175 -1.893 z" />
          </g>
          <g
             transform="translate(125.7473,154.442)"
             id="g4508"
             style="fill:#000000">
            <path
               inkscape:connector-curvature="0"
               id="path4510"
               style="fill:#000000;fill-opacity:1;fill-rule:nonzero;stroke:none"
               d="m 0,0 c 0,-0.956 -0.003,-1.81 -0.01,-2.56 -0.006,-0.751 -0.036,-1.338 -0.089,-1.763 -0.04,-0.292 -0.097,-0.538 -0.17,-0.738 -0.073,-0.199 -0.209,-0.318 -0.408,-0.358 -0.093,-0.027 -0.193,-0.047 -0.299,-0.06 -0.106,-0.013 -0.206,-0.02 -0.299,-0.02 -0.106,0 -0.159,-0.04 -0.159,-0.119 0,-0.107 0.106,-0.16 0.318,-0.16 0.147,0 0.326,0.007 0.538,0.02 0.213,0.013 0.419,0.02 0.618,0.02 0.213,0.013 0.392,0.02 0.538,0.02 h 0.259 c 0.146,0 0.345,-0.003 0.598,-0.01 0.252,-0.007 0.571,-0.023 0.956,-0.05 0.385,-0.013 0.853,-0.026 1.405,-0.04 0.551,-0.013 1.205,-0.019 1.962,-0.019 0.199,0 0.359,0.003 0.478,0.01 0.12,0.006 0.219,0.026 0.299,0.059 0.08,0.033 0.14,0.083 0.179,0.15 0.04,0.066 0.08,0.166 0.12,0.298 0.027,0.107 0.053,0.259 0.08,0.459 0.026,0.199 0.053,0.401 0.079,0.607 0.027,0.206 0.05,0.392 0.07,0.558 0.02,0.166 0.03,0.269 0.03,0.309 0,0.067 -0.003,0.133 -0.01,0.199 -0.007,0.067 -0.043,0.1 -0.11,0.1 -0.079,0 -0.139,-0.1 -0.179,-0.299 C 6.728,-3.799 6.628,-4.114 6.495,-4.333 6.362,-4.552 6.163,-4.715 5.898,-4.821 5.632,-4.928 5.313,-4.991 4.941,-5.011 c -0.372,-0.02 -0.69,-0.03 -0.956,-0.03 -0.491,0 -0.883,0.02 -1.176,0.06 -0.292,0.04 -0.521,0.12 -0.687,0.239 -0.166,0.12 -0.279,0.286 -0.339,0.498 -0.059,0.213 -0.096,0.492 -0.109,0.837 v 0.618 0.996 1.036 V 0 1.753 c 0,0.093 0.046,0.14 0.139,0.14 0.08,0 0.249,-0.004 0.508,-0.01 C 2.58,1.876 2.859,1.87 3.158,1.863 3.457,1.856 3.749,1.846 4.035,1.833 4.32,1.82 4.529,1.807 4.662,1.793 5.048,1.753 5.307,1.664 5.439,1.524 5.572,1.385 5.659,1.242 5.698,1.096 5.738,0.963 5.761,0.847 5.768,0.747 5.775,0.648 5.778,0.545 5.778,0.438 c 0,-0.119 0.046,-0.179 0.14,-0.179 0.066,0 0.106,0.043 0.119,0.13 0.013,0.086 0.02,0.169 0.02,0.249 0,0.039 0.003,0.109 0.01,0.209 0.007,0.099 0.013,0.212 0.02,0.339 0.006,0.126 0.013,0.252 0.02,0.378 0.006,0.126 0.016,0.243 0.03,0.349 0.026,0.332 0.059,0.584 0.099,0.757 0.04,0.172 0.06,0.292 0.06,0.358 0,0.107 -0.033,0.16 -0.1,0.16 C 6.143,3.188 6.044,3.101 5.898,2.929 5.805,2.823 5.685,2.756 5.539,2.73 5.393,2.703 5.2,2.677 4.961,2.65 4.842,2.637 4.622,2.627 4.304,2.62 3.985,2.614 3.646,2.61 3.288,2.61 H 2.331 1.793 c -0.079,0 -0.119,0.067 -0.119,0.199 v 5.499 c 0,0.133 0.04,0.199 0.119,0.199 H 2.251 C 2.517,8.507 2.803,8.504 3.108,8.498 3.414,8.491 3.706,8.484 3.985,8.478 4.264,8.471 4.443,8.461 4.523,8.448 5.054,8.381 5.406,8.292 5.579,8.179 5.751,8.066 5.871,7.93 5.938,7.77 5.991,7.651 6.024,7.518 6.037,7.372 6.05,7.226 6.057,7.12 6.057,7.053 6.057,6.88 6.11,6.794 6.216,6.794 c 0.04,0 0.07,0.023 0.09,0.07 0.02,0.046 0.037,0.096 0.05,0.149 0.013,0.053 0.023,0.143 0.03,0.269 0.006,0.127 0.016,0.259 0.03,0.399 0.013,0.139 0.023,0.269 0.029,0.388 0.007,0.12 0.01,0.206 0.01,0.259 0.027,0.279 0.06,0.488 0.1,0.628 0.04,0.139 0.06,0.242 0.06,0.309 0,0.119 -0.027,0.179 -0.08,0.179 -0.053,0 -0.1,-0.013 -0.139,-0.04 C 6.356,9.377 6.309,9.358 6.256,9.344 6.07,9.305 5.785,9.271 5.4,9.245 5.28,9.245 4.984,9.242 4.513,9.235 4.041,9.228 3.533,9.225 2.989,9.225 H 1.534 0.837 L 0.02,9.265 c -0.226,0.013 -0.465,0.02 -0.717,0.02 h -0.718 c -0.212,0 -0.318,-0.053 -0.318,-0.16 0,-0.08 0.053,-0.119 0.159,-0.119 0.093,0 0.209,-0.004 0.349,-0.01 0.139,-0.007 0.249,-0.024 0.329,-0.05 C -0.564,8.879 -0.345,8.76 -0.239,8.587 -0.133,8.415 -0.066,8.156 -0.04,7.81 -0.026,7.651 -0.016,7.482 -0.01,7.302 -0.003,7.123 0,6.88 0,6.575 V 5.399 3.507 Z" />
          </g>
          <g
             transform="translate(137.9008,154.442)"
             id="g4512"
             style="fill:#000000">
            <path
               inkscape:connector-curvature="0"
               id="path4514"
               style="fill:#000000;fill-opacity:1;fill-rule:nonzero;stroke:none"
               d="m 0,0 c 0,-0.956 -0.003,-1.81 -0.01,-2.56 -0.006,-0.751 -0.036,-1.338 -0.089,-1.763 -0.04,-0.292 -0.097,-0.538 -0.17,-0.738 -0.073,-0.199 -0.209,-0.318 -0.408,-0.358 -0.093,-0.027 -0.193,-0.047 -0.299,-0.06 -0.106,-0.013 -0.206,-0.02 -0.299,-0.02 -0.106,0 -0.159,-0.04 -0.159,-0.119 0,-0.107 0.106,-0.16 0.318,-0.16 0.147,0 0.326,0.007 0.538,0.02 0.213,0.013 0.419,0.02 0.618,0.02 0.213,0.013 0.392,0.02 0.538,0.02 h 0.259 c 0.146,0 0.345,-0.003 0.598,-0.01 0.252,-0.007 0.571,-0.023 0.956,-0.05 0.385,-0.013 0.853,-0.026 1.405,-0.04 0.551,-0.013 1.205,-0.019 1.962,-0.019 0.199,0 0.359,0.003 0.478,0.01 0.12,0.006 0.219,0.026 0.299,0.059 0.08,0.033 0.14,0.083 0.179,0.15 0.04,0.066 0.08,0.166 0.12,0.298 0.027,0.107 0.053,0.259 0.08,0.459 0.026,0.199 0.053,0.401 0.079,0.607 0.027,0.206 0.05,0.392 0.07,0.558 0.02,0.166 0.03,0.269 0.03,0.309 0,0.067 -0.003,0.133 -0.01,0.199 -0.007,0.067 -0.043,0.1 -0.11,0.1 -0.079,0 -0.139,-0.1 -0.179,-0.299 C 6.728,-3.799 6.628,-4.114 6.495,-4.333 6.362,-4.552 6.163,-4.715 5.898,-4.821 5.632,-4.928 5.313,-4.991 4.941,-5.011 c -0.372,-0.02 -0.69,-0.03 -0.956,-0.03 -0.491,0 -0.883,0.02 -1.176,0.06 -0.292,0.04 -0.521,0.12 -0.687,0.239 -0.166,0.12 -0.279,0.286 -0.339,0.498 -0.059,0.213 -0.096,0.492 -0.109,0.837 v 0.618 0.996 1.036 V 0 1.753 c 0,0.093 0.046,0.14 0.139,0.14 0.08,0 0.249,-0.004 0.508,-0.01 C 2.58,1.876 2.859,1.87 3.158,1.863 3.457,1.856 3.749,1.846 4.035,1.833 4.32,1.82 4.529,1.807 4.662,1.793 5.048,1.753 5.307,1.664 5.439,1.524 5.572,1.385 5.659,1.242 5.698,1.096 5.738,0.963 5.761,0.847 5.768,0.747 5.775,0.648 5.778,0.545 5.778,0.438 c 0,-0.119 0.046,-0.179 0.14,-0.179 0.066,0 0.106,0.043 0.119,0.13 0.013,0.086 0.02,0.169 0.02,0.249 0,0.039 0.003,0.109 0.01,0.209 0.007,0.099 0.013,0.212 0.02,0.339 0.006,0.126 0.013,0.252 0.02,0.378 0.006,0.126 0.016,0.243 0.03,0.349 0.026,0.332 0.06,0.584 0.099,0.757 0.04,0.172 0.06,0.292 0.06,0.358 0,0.107 -0.033,0.16 -0.099,0.16 C 6.143,3.188 6.044,3.101 5.898,2.929 5.805,2.823 5.685,2.756 5.539,2.73 5.393,2.703 5.2,2.677 4.961,2.65 4.842,2.637 4.622,2.627 4.304,2.62 3.985,2.614 3.646,2.61 3.288,2.61 H 2.331 1.793 c -0.079,0 -0.119,0.067 -0.119,0.199 v 5.499 c 0,0.133 0.04,0.199 0.119,0.199 H 2.251 C 2.517,8.507 2.803,8.504 3.108,8.498 3.414,8.491 3.706,8.484 3.985,8.478 4.264,8.471 4.443,8.461 4.523,8.448 5.054,8.381 5.406,8.292 5.579,8.179 5.751,8.066 5.871,7.93 5.938,7.77 5.991,7.651 6.024,7.518 6.037,7.372 6.05,7.226 6.057,7.12 6.057,7.053 6.057,6.88 6.11,6.794 6.216,6.794 c 0.04,0 0.07,0.023 0.09,0.07 0.02,0.046 0.037,0.096 0.05,0.149 0.013,0.053 0.023,0.143 0.03,0.269 0.006,0.127 0.016,0.259 0.03,0.399 0.013,0.139 0.023,0.269 0.029,0.388 0.007,0.12 0.01,0.206 0.01,0.259 0.027,0.279 0.06,0.488 0.1,0.628 0.04,0.139 0.06,0.242 0.06,0.309 0,0.119 -0.027,0.179 -0.08,0.179 -0.053,0 -0.1,-0.013 -0.139,-0.04 C 6.356,9.377 6.309,9.358 6.256,9.344 6.07,9.305 5.785,9.271 5.4,9.245 5.28,9.245 4.984,9.242 4.513,9.235 4.041,9.228 3.533,9.225 2.989,9.225 H 1.534 0.837 L 0.02,9.265 c -0.226,0.013 -0.465,0.02 -0.717,0.02 h -0.718 c -0.212,0 -0.318,-0.053 -0.318,-0.16 0,-0.08 0.053,-0.119 0.159,-0.119 0.093,0 0.209,-0.004 0.349,-0.01 0.139,-0.007 0.249,-0.024 0.329,-0.05 C -0.564,8.879 -0.345,8.76 -0.239,8.587 -0.133,8.415 -0.066,8.156 -0.04,7.81 -0.026,7.651 -0.016,7.482 -0.01,7.302 -0.003,7.123 0,6.88 0,6.575 V 5.399 3.507 Z" />
          </g>
          <g
             transform="translate(150.3332,160.9172)"
             id="g4516"
             style="fill:#000000">
            <path
               inkscape:connector-curvature="0"
               id="path4518"
               style="fill:#000000;fill-opacity:1;fill-rule:nonzero;stroke:none"
               d="M 0,0 C 0.16,-0.186 0.412,-0.468 0.757,-0.847 1.103,-1.225 1.508,-1.674 1.973,-2.191 2.437,-2.709 2.946,-3.271 3.497,-3.875 4.048,-4.479 4.616,-5.094 5.2,-5.718 5.731,-6.289 6.289,-6.88 6.874,-7.491 7.458,-8.102 8.003,-8.67 8.507,-9.195 c 0.505,-0.524 0.934,-0.963 1.285,-1.315 0.353,-0.352 0.555,-0.554 0.608,-0.607 0.266,-0.266 0.482,-0.482 0.648,-0.648 0.166,-0.166 0.302,-0.295 0.408,-0.388 0.106,-0.093 0.19,-0.156 0.249,-0.19 0.06,-0.033 0.11,-0.049 0.15,-0.049 0.039,0 0.069,0.013 0.09,0.039 0.019,0.027 0.036,0.087 0.049,0.18 0.014,0.093 0.023,0.232 0.03,0.418 0.007,0.186 0.01,0.445 0.01,0.777 l 0.04,11.675 c 0,0.598 0.04,1.027 0.119,1.286 0.08,0.258 0.286,0.421 0.618,0.488 0.12,0.026 0.216,0.043 0.289,0.049 0.073,0.007 0.136,0.01 0.189,0.01 0.146,0 0.219,0.047 0.219,0.14 0,0.093 -0.119,0.139 -0.358,0.139 -0.412,0 -0.771,-0.01 -1.076,-0.03 C 11.768,2.76 11.562,2.75 11.456,2.75 c -0.053,0 -0.149,0.003 -0.289,0.01 -0.139,0.006 -0.305,0.013 -0.498,0.019 -0.192,0.007 -0.398,0.014 -0.617,0.02 -0.219,0.007 -0.442,0.01 -0.668,0.01 -0.266,0 -0.398,-0.046 -0.398,-0.139 0,-0.093 0.053,-0.14 0.159,-0.14 0.08,0 0.216,-0.006 0.409,-0.02 0.192,-0.013 0.381,-0.039 0.567,-0.079 0.306,-0.08 0.508,-0.253 0.608,-0.518 0.1,-0.266 0.156,-0.724 0.169,-1.375 l 0.22,-10.121 c -0.16,0.159 -0.405,0.422 -0.738,0.787 -0.332,0.365 -0.717,0.787 -1.155,1.265 C 8.786,-7.053 8.318,-6.542 7.82,-5.997 7.322,-5.452 6.827,-4.914 6.336,-4.383 5.565,-3.56 4.818,-2.756 4.094,-1.972 3.37,-1.189 2.716,-0.485 2.132,0.139 1.547,0.764 1.066,1.285 0.687,1.704 0.309,2.122 0.08,2.371 0,2.451 -0.106,2.557 -0.229,2.69 -0.368,2.849 c -0.14,0.16 -0.249,0.239 -0.329,0.239 -0.08,0 -0.136,-0.069 -0.17,-0.209 C -0.9,2.74 -0.916,2.477 -0.916,2.092 l -0.02,-11.416 c 0,-0.903 -0.037,-1.534 -0.11,-1.893 -0.073,-0.359 -0.236,-0.571 -0.488,-0.637 -0.146,-0.054 -0.299,-0.087 -0.458,-0.1 -0.16,-0.013 -0.279,-0.02 -0.359,-0.02 -0.106,0 -0.159,-0.04 -0.159,-0.119 0,-0.107 0.106,-0.16 0.319,-0.16 0.451,0 0.86,0.01 1.225,0.03 0.365,0.02 0.594,0.03 0.687,0.03 0.093,0 0.326,-0.01 0.697,-0.03 0.373,-0.02 0.844,-0.03 1.415,-0.03 0.239,0 0.359,0.053 0.359,0.16 0,0.079 -0.053,0.119 -0.16,0.119 -0.093,0 -0.235,0.007 -0.428,0.02 -0.193,0.013 -0.382,0.046 -0.568,0.1 -0.133,0.039 -0.245,0.106 -0.339,0.199 -0.093,0.093 -0.169,0.229 -0.229,0.408 -0.06,0.179 -0.106,0.405 -0.139,0.678 -0.033,0.272 -0.057,0.614 -0.07,1.026 z" />
          </g>
          <g
             transform="translate(177.0711,158.2676)"
             id="g4520"
             style="fill:#000000">
            <path
               inkscape:connector-curvature="0"
               id="path4522"
               style="fill:#000000;fill-opacity:1;fill-rule:nonzero;stroke:none"
               d="m 0,0 v 1.215 1.216 c 0,0.398 0.003,0.757 0.01,1.076 0.006,0.318 0.01,0.564 0.01,0.737 0,0.199 0.079,0.332 0.239,0.398 0.04,0.013 0.109,0.03 0.209,0.05 0.1,0.02 0.216,0.037 0.349,0.05 0.133,0.013 0.262,0.023 0.388,0.03 0.126,0.006 0.243,0.01 0.349,0.01 0.598,0 1.185,-0.024 1.763,-0.07 C 3.895,4.665 4.456,4.562 5.001,4.403 5.545,4.244 6.077,4.014 6.595,3.716 7.113,3.417 7.604,3.022 8.069,2.53 8.268,2.318 8.481,2.055 8.707,1.743 8.932,1.431 9.141,1.066 9.334,0.647 9.527,0.229 9.683,-0.239 9.803,-0.757 9.922,-1.275 9.982,-1.853 9.982,-2.49 9.982,-2.956 9.948,-3.414 9.882,-3.865 9.816,-4.317 9.713,-4.752 9.573,-5.17 9.434,-5.589 9.265,-5.977 9.065,-6.336 8.866,-6.694 8.64,-7 8.388,-7.252 7.79,-7.85 7.083,-8.308 6.266,-8.627 5.449,-8.946 4.576,-9.105 3.646,-9.105 c -0.585,0 -1.079,0.023 -1.484,0.069 -0.405,0.047 -0.737,0.11 -0.997,0.19 -0.259,0.079 -0.458,0.166 -0.597,0.259 -0.14,0.093 -0.243,0.186 -0.309,0.279 -0.04,0.053 -0.073,0.139 -0.1,0.259 -0.026,0.119 -0.046,0.252 -0.06,0.398 -0.013,0.146 -0.026,0.296 -0.039,0.448 -0.014,0.153 -0.02,0.289 -0.02,0.409 0,0.093 -0.004,0.272 -0.01,0.538 C 0.023,-5.991 0.016,-5.665 0.01,-5.28 0.003,-4.895 0,-4.463 0,-3.985 v 1.514 z m -1.674,-3.826 c 0,-0.956 -0.003,-1.809 -0.01,-2.56 -0.006,-0.75 -0.036,-1.338 -0.089,-1.763 -0.04,-0.292 -0.097,-0.538 -0.17,-0.737 -0.073,-0.199 -0.209,-0.319 -0.408,-0.359 -0.093,-0.026 -0.193,-0.046 -0.299,-0.06 -0.106,-0.013 -0.206,-0.019 -0.299,-0.019 -0.106,0 -0.159,-0.04 -0.159,-0.12 0,-0.106 0.106,-0.159 0.319,-0.159 0.146,0 0.325,0.006 0.538,0.02 0.212,0.013 0.418,0.019 0.617,0.019 0.213,0.014 0.392,0.02 0.538,0.02 h 0.259 c 0.053,0 0.233,-0.013 0.538,-0.039 0.306,-0.027 0.677,-0.054 1.116,-0.08 0.425,-0.027 0.886,-0.053 1.384,-0.08 0.499,-0.026 0.96,-0.04 1.385,-0.04 0.85,0 1.601,0.077 2.251,0.229 0.652,0.153 1.222,0.346 1.714,0.578 0.492,0.233 0.906,0.482 1.245,0.748 0.339,0.265 0.614,0.511 0.827,0.737 0.279,0.292 0.548,0.63 0.807,1.016 0.259,0.385 0.488,0.813 0.687,1.285 0.2,0.471 0.359,0.986 0.479,1.544 0.119,0.558 0.179,1.149 0.179,1.773 0,0.598 -0.053,1.149 -0.159,1.654 -0.107,0.504 -0.25,0.966 -0.429,1.384 C 11.008,1.584 10.802,1.959 10.569,2.291 10.337,2.623 10.095,2.922 9.842,3.188 9.245,3.799 8.587,4.26 7.87,4.572 7.153,4.884 6.429,5.107 5.698,5.24 4.968,5.373 4.267,5.442 3.596,5.449 2.925,5.456 2.344,5.459 1.853,5.459 1.547,5.459 1.248,5.456 0.956,5.449 0.664,5.442 0.395,5.436 0.149,5.429 -0.096,5.422 -0.309,5.416 -0.488,5.409 -0.667,5.403 -0.784,5.399 -0.837,5.399 c -0.027,0 -0.116,0.004 -0.269,0.01 -0.153,0.007 -0.339,0.013 -0.558,0.02 -0.219,0.007 -0.455,0.013 -0.707,0.02 -0.252,0.007 -0.491,0.01 -0.717,0.01 -0.213,0 -0.319,-0.053 -0.319,-0.159 0,-0.08 0.053,-0.12 0.159,-0.12 0.093,0 0.21,-0.003 0.349,-0.01 0.14,-0.007 0.249,-0.023 0.329,-0.05 0.332,-0.066 0.551,-0.186 0.657,-0.358 0.106,-0.173 0.173,-0.432 0.199,-0.777 0.014,-0.16 0.024,-0.329 0.03,-0.508 0.007,-0.18 0.01,-0.422 0.01,-0.728 V 1.574 -0.319 Z" />
          </g>
          <g
             transform="translate(195.2613,162.7305)"
             id="g4524"
             style="fill:#000000">
            <path
               inkscape:connector-curvature="0"
               id="path4526"
               style="fill:#000000;fill-opacity:1;fill-rule:nonzero;stroke:none"
               d="m 0,0 c 0,0.119 0.053,0.199 0.159,0.239 0.107,0.027 0.279,0.053 0.518,0.08 0.239,0.026 0.512,0.039 0.817,0.039 1.076,0 1.919,-0.351 2.53,-1.055 0.611,-0.705 0.917,-1.681 0.917,-2.929 0,-0.757 -0.116,-1.398 -0.349,-1.923 C 4.36,-6.073 4.071,-6.455 3.726,-6.694 3.5,-6.854 3.254,-6.957 2.989,-7.003 2.723,-7.05 2.47,-7.073 2.231,-7.073 c -0.438,0 -0.859,0.03 -1.265,0.09 -0.405,0.059 -0.68,0.136 -0.827,0.229 C 0.046,-6.701 0,-6.621 0,-6.515 Z m -1.594,-8.288 c 0,-0.957 -0.003,-1.81 -0.01,-2.561 -0.006,-0.75 -0.036,-1.338 -0.09,-1.763 -0.039,-0.292 -0.096,-0.538 -0.169,-0.737 -0.073,-0.199 -0.209,-0.319 -0.408,-0.359 -0.093,-0.026 -0.193,-0.046 -0.299,-0.06 -0.106,-0.013 -0.206,-0.019 -0.299,-0.019 -0.106,0 -0.159,-0.04 -0.159,-0.12 0,-0.106 0.106,-0.159 0.318,-0.159 0.146,0 0.326,0.003 0.538,0.01 0.213,0.006 0.419,0.013 0.618,0.019 0.199,0.007 0.368,0.014 0.508,0.021 0.139,0.006 0.209,0.01 0.209,0.01 0.027,0 0.117,-0.004 0.269,-0.01 0.153,-0.007 0.345,-0.014 0.578,-0.021 0.232,-0.006 0.488,-0.013 0.767,-0.019 0.279,-0.007 0.558,-0.01 0.837,-0.01 0.212,0 0.318,0.053 0.318,0.159 0,0.08 -0.053,0.12 -0.159,0.12 -0.093,0 -0.229,0.006 -0.408,0.019 -0.18,0.014 -0.342,0.034 -0.488,0.06 -0.306,0.04 -0.505,0.16 -0.598,0.359 -0.093,0.199 -0.153,0.445 -0.18,0.737 -0.053,0.425 -0.082,1.013 -0.089,1.763 C 0.003,-10.098 0,-9.245 0,-8.288 v 0.478 c 0,0.106 0.046,0.159 0.139,0.159 l 2.451,-0.04 c 0.093,0 0.179,-0.04 0.259,-0.119 0.093,-0.133 0.222,-0.309 0.389,-0.528 0.165,-0.219 0.345,-0.462 0.537,-0.727 0.193,-0.266 0.396,-0.545 0.608,-0.837 0.213,-0.292 0.425,-0.578 0.638,-0.857 0.571,-0.757 1.056,-1.378 1.454,-1.863 0.399,-0.485 0.81,-0.84 1.236,-1.066 0.252,-0.146 0.531,-0.245 0.836,-0.298 0.306,-0.054 0.737,-0.08 1.295,-0.08 h 1.415 c 0.186,0 0.312,0.01 0.379,0.029 0.066,0.021 0.099,0.064 0.099,0.13 0,0.08 -0.06,0.12 -0.179,0.12 -0.067,0 -0.166,0.003 -0.299,0.01 -0.133,0.006 -0.292,0.023 -0.478,0.049 -0.253,0.04 -0.585,0.147 -0.996,0.319 -0.412,0.173 -0.89,0.545 -1.435,1.116 -0.584,0.624 -1.215,1.368 -1.893,2.232 -0.677,0.863 -1.428,1.819 -2.251,2.868 0.89,0.824 1.514,1.611 1.873,2.361 0.358,0.751 0.538,1.498 0.538,2.242 0,0.345 -0.05,0.664 -0.15,0.956 C 6.366,-1.342 6.246,-1.083 6.106,-0.857 5.967,-0.631 5.818,-0.435 5.658,-0.269 5.499,-0.103 5.36,0.026 5.24,0.119 4.709,0.505 4.128,0.747 3.497,0.847 2.866,0.946 2.231,0.996 1.594,0.996 1.435,0.996 1.235,0.993 0.996,0.986 0.757,0.979 0.515,0.973 0.269,0.966 0.023,0.959 -0.196,0.953 -0.388,0.946 -0.581,0.94 -0.704,0.936 -0.757,0.936 c -0.027,0 -0.116,0.004 -0.269,0.01 -0.153,0.007 -0.339,0.013 -0.558,0.02 -0.219,0.007 -0.455,0.013 -0.707,0.02 -0.253,0.007 -0.492,0.01 -0.718,0.01 -0.212,0 -0.318,-0.053 -0.318,-0.159 0,-0.08 0.053,-0.12 0.159,-0.12 0.093,0 0.209,-0.003 0.349,-0.01 0.139,-0.007 0.249,-0.023 0.329,-0.05 0.332,-0.066 0.551,-0.185 0.657,-0.358 0.106,-0.173 0.173,-0.432 0.199,-0.777 0.014,-0.16 0.024,-0.329 0.03,-0.508 0.007,-0.18 0.01,-0.422 0.01,-0.728 v -1.175 -1.893 z" />
          </g>
          <g
             transform="translate(208.6898,154.442)"
             id="g4528"
             style="fill:#000000">
            <path
               inkscape:connector-curvature="0"
               id="path4530"
               style="fill:#000000;fill-opacity:1;fill-rule:nonzero;stroke:none"
               d="m 0,0 c 0,-0.956 -0.003,-1.81 -0.01,-2.56 -0.006,-0.751 -0.036,-1.338 -0.089,-1.763 -0.04,-0.292 -0.097,-0.538 -0.17,-0.738 -0.073,-0.199 -0.209,-0.318 -0.408,-0.358 -0.093,-0.027 -0.193,-0.047 -0.299,-0.06 -0.106,-0.013 -0.206,-0.02 -0.299,-0.02 -0.106,0 -0.159,-0.04 -0.159,-0.119 0,-0.107 0.106,-0.16 0.318,-0.16 0.147,0 0.326,0.007 0.538,0.02 0.213,0.013 0.419,0.02 0.618,0.02 0.213,0.013 0.392,0.02 0.538,0.02 h 0.259 c 0.146,0 0.345,-0.003 0.598,-0.01 0.252,-0.007 0.571,-0.023 0.956,-0.05 0.385,-0.013 0.853,-0.026 1.405,-0.04 0.551,-0.013 1.205,-0.019 1.962,-0.019 0.199,0 0.359,0.003 0.478,0.01 0.12,0.006 0.219,0.026 0.299,0.059 0.08,0.033 0.14,0.083 0.179,0.15 0.04,0.066 0.08,0.166 0.12,0.298 0.027,0.107 0.053,0.259 0.08,0.459 0.026,0.199 0.053,0.401 0.079,0.607 0.027,0.206 0.05,0.392 0.07,0.558 0.02,0.166 0.03,0.269 0.03,0.309 0,0.067 -0.003,0.133 -0.01,0.199 -0.007,0.067 -0.043,0.1 -0.11,0.1 -0.079,0 -0.139,-0.1 -0.179,-0.299 C 6.728,-3.799 6.628,-4.114 6.495,-4.333 6.362,-4.552 6.163,-4.715 5.898,-4.821 5.632,-4.928 5.313,-4.991 4.941,-5.011 c -0.372,-0.02 -0.69,-0.03 -0.956,-0.03 -0.491,0 -0.883,0.02 -1.176,0.06 -0.292,0.04 -0.521,0.12 -0.687,0.239 -0.166,0.12 -0.279,0.286 -0.339,0.498 -0.059,0.213 -0.096,0.492 -0.109,0.837 v 0.618 0.996 1.036 V 0 1.753 c 0,0.093 0.046,0.14 0.139,0.14 0.08,0 0.249,-0.004 0.508,-0.01 C 2.58,1.876 2.859,1.87 3.158,1.863 3.457,1.856 3.749,1.846 4.035,1.833 4.32,1.82 4.529,1.807 4.662,1.793 5.048,1.753 5.307,1.664 5.439,1.524 5.572,1.385 5.659,1.242 5.698,1.096 5.738,0.963 5.761,0.847 5.768,0.747 5.775,0.648 5.778,0.545 5.778,0.438 c 0,-0.119 0.046,-0.179 0.14,-0.179 0.066,0 0.106,0.043 0.119,0.13 0.013,0.086 0.02,0.169 0.02,0.249 0,0.039 0.003,0.109 0.01,0.209 0.007,0.099 0.013,0.212 0.02,0.339 0.006,0.126 0.013,0.252 0.02,0.378 0.006,0.126 0.016,0.243 0.03,0.349 0.026,0.332 0.059,0.584 0.099,0.757 0.04,0.172 0.06,0.292 0.06,0.358 0,0.107 -0.033,0.16 -0.1,0.16 C 6.143,3.188 6.044,3.101 5.898,2.929 5.805,2.823 5.685,2.756 5.539,2.73 5.393,2.703 5.2,2.677 4.961,2.65 4.842,2.637 4.622,2.627 4.304,2.62 3.985,2.614 3.646,2.61 3.288,2.61 H 2.331 1.793 c -0.079,0 -0.119,0.067 -0.119,0.199 v 5.499 c 0,0.133 0.04,0.199 0.119,0.199 H 2.251 C 2.517,8.507 2.803,8.504 3.108,8.498 3.414,8.491 3.706,8.484 3.985,8.478 4.264,8.471 4.443,8.461 4.523,8.448 5.054,8.381 5.406,8.292 5.579,8.179 5.751,8.066 5.871,7.93 5.938,7.77 5.991,7.651 6.024,7.518 6.037,7.372 6.05,7.226 6.057,7.12 6.057,7.053 6.057,6.88 6.11,6.794 6.216,6.794 c 0.04,0 0.07,0.023 0.09,0.07 0.02,0.046 0.037,0.096 0.05,0.149 0.013,0.053 0.023,0.143 0.03,0.269 0.006,0.127 0.016,0.259 0.03,0.399 0.013,0.139 0.023,0.269 0.029,0.388 0.007,0.12 0.01,0.206 0.01,0.259 0.027,0.279 0.06,0.488 0.1,0.628 0.04,0.139 0.06,0.242 0.06,0.309 0,0.119 -0.027,0.179 -0.08,0.179 -0.053,0 -0.1,-0.013 -0.139,-0.04 C 6.356,9.377 6.309,9.358 6.256,9.344 6.07,9.305 5.785,9.271 5.4,9.245 5.28,9.245 4.984,9.242 4.513,9.235 4.041,9.228 3.533,9.225 2.989,9.225 H 1.534 0.837 L 0.02,9.265 c -0.226,0.013 -0.465,0.02 -0.717,0.02 h -0.718 c -0.212,0 -0.318,-0.053 -0.318,-0.16 0,-0.08 0.053,-0.119 0.159,-0.119 0.093,0 0.209,-0.004 0.349,-0.01 0.139,-0.007 0.249,-0.024 0.329,-0.05 C -0.564,8.879 -0.345,8.76 -0.239,8.587 -0.133,8.415 -0.066,8.156 -0.04,7.81 -0.026,7.651 -0.016,7.482 -0.01,7.302 -0.003,7.123 0,6.88 0,6.575 V 5.399 3.507 Z" />
          </g>
          <g
             transform="translate(221.9792,155.2589)"
             id="g4532"
             style="fill:#000000">
            <path
               inkscape:connector-curvature="0"
               id="path4534"
               style="fill:#000000;fill-opacity:1;fill-rule:nonzero;stroke:none"
               d="m 0,0 c -0.08,0 -0.1,0.047 -0.06,0.139 l 1.754,5.38 c 0.092,0.292 0.192,0.292 0.298,0 L 3.885,0.139 C 3.912,0.047 3.885,0 3.805,0 Z m -2.789,-4.403 c -0.186,-0.505 -0.396,-0.927 -0.628,-1.265 -0.232,-0.339 -0.581,-0.542 -1.046,-0.608 -0.08,-0.013 -0.179,-0.023 -0.299,-0.03 -0.119,-0.006 -0.212,-0.01 -0.279,-0.01 -0.119,0 -0.179,-0.04 -0.179,-0.119 0,-0.107 0.126,-0.16 0.378,-0.16 0.24,0 0.479,0.004 0.718,0.01 0.239,0.007 0.465,0.014 0.677,0.02 0.213,0.007 0.395,0.013 0.548,0.02 0.153,0.007 0.256,0.01 0.309,0.01 0.053,0 0.143,-0.003 0.269,-0.01 0.126,-0.007 0.262,-0.013 0.408,-0.02 0.146,-0.006 0.299,-0.013 0.458,-0.02 0.16,-0.006 0.299,-0.01 0.419,-0.01 0.199,0 0.299,0.053 0.299,0.16 0,0.079 -0.067,0.119 -0.199,0.119 h -0.2 c -0.172,0 -0.342,0.047 -0.508,0.14 -0.166,0.093 -0.249,0.239 -0.249,0.438 0,0.372 0.093,0.817 0.279,1.335 l 1.196,3.526 c 0.039,0.107 0.106,0.16 0.199,0.16 h 4.283 c 0.08,0 0.14,-0.04 0.18,-0.12 l 1.852,-4.901 c 0.067,-0.159 0.08,-0.282 0.04,-0.368 -0.04,-0.087 -0.093,-0.143 -0.159,-0.17 -0.093,-0.026 -0.14,-0.073 -0.14,-0.139 0,-0.067 0.054,-0.103 0.16,-0.11 0.106,-0.007 0.252,-0.017 0.438,-0.03 0.346,-0.013 0.688,-0.023 1.026,-0.03 0.339,-0.006 0.648,-0.01 0.927,-0.01 h 0.737 0.438 c 0.107,0 0.199,0.01 0.279,0.03 0.08,0.02 0.12,0.063 0.12,0.13 0,0.079 -0.067,0.119 -0.2,0.119 -0.106,0 -0.228,0.007 -0.368,0.02 -0.139,0.013 -0.282,0.047 -0.428,0.1 C 8.859,-6.17 8.743,-6.123 8.617,-6.057 8.491,-5.99 8.358,-5.878 8.218,-5.718 8.079,-5.559 7.926,-5.34 7.76,-5.061 7.594,-4.782 7.425,-4.423 7.252,-3.985 7.053,-3.48 6.804,-2.849 6.505,-2.092 6.206,-1.335 5.894,-0.535 5.568,0.309 5.243,1.152 4.914,2.006 4.582,2.869 4.25,3.732 3.948,4.526 3.676,5.25 3.403,5.974 3.171,6.588 2.979,7.093 2.786,7.598 2.663,7.91 2.61,8.029 2.49,8.335 2.404,8.531 2.351,8.617 2.298,8.703 2.238,8.747 2.172,8.747 2.105,8.747 2.045,8.7 1.992,8.607 1.939,8.514 1.853,8.302 1.733,7.969 Z" />
          </g>
          <g
             transform="translate(248.7768,163.4677)"
             id="g4536"
             style="fill:#000000">
            <path
               inkscape:connector-curvature="0"
               id="path4538"
               style="fill:#000000;fill-opacity:1;fill-rule:nonzero;stroke:none"
               d="m 0,0 c -0.04,0.358 -0.119,0.538 -0.239,0.538 -0.106,0 -0.206,-0.107 -0.299,-0.319 l -5.858,-12.512 -6.096,12.532 c -0.093,0.199 -0.193,0.299 -0.299,0.299 -0.12,0 -0.193,-0.12 -0.219,-0.359 l -1.435,-12.99 c -0.04,-0.385 -0.099,-0.741 -0.179,-1.066 -0.08,-0.325 -0.286,-0.521 -0.618,-0.588 -0.146,-0.026 -0.262,-0.043 -0.348,-0.049 -0.087,-0.007 -0.17,-0.01 -0.25,-0.01 -0.132,0 -0.199,-0.034 -0.199,-0.1 0,-0.12 0.113,-0.179 0.339,-0.179 0.133,0 0.286,0.003 0.458,0.01 0.173,0.006 0.342,0.013 0.508,0.019 0.166,0.007 0.316,0.014 0.449,0.02 0.132,0.007 0.219,0.01 0.258,0.01 0.041,0 0.124,-0.003 0.25,-0.01 0.126,-0.006 0.279,-0.013 0.458,-0.02 0.179,-0.006 0.369,-0.013 0.568,-0.019 0.199,-0.007 0.392,-0.01 0.578,-0.01 0.238,0 0.358,0.059 0.358,0.179 0,0.066 -0.053,0.1 -0.159,0.1 -0.067,0 -0.166,0.006 -0.299,0.019 -0.133,0.014 -0.286,0.04 -0.458,0.08 -0.147,0.027 -0.269,0.1 -0.369,0.219 -0.1,0.12 -0.149,0.253 -0.149,0.399 v 0.518 c 0,0.172 0.006,0.338 0.02,0.498 l 0.797,9.244 h 0.079 c 0.04,-0.092 0.126,-0.289 0.259,-0.587 0.133,-0.299 0.293,-0.648 0.478,-1.046 0.186,-0.399 0.382,-0.824 0.588,-1.275 0.206,-0.452 0.402,-0.874 0.588,-1.266 0.186,-0.391 0.345,-0.727 0.478,-1.006 0.133,-0.279 0.213,-0.445 0.239,-0.498 0.027,-0.053 0.14,-0.275 0.339,-0.667 0.199,-0.392 0.425,-0.84 0.677,-1.345 0.253,-0.505 0.502,-1.006 0.748,-1.504 0.245,-0.498 0.434,-0.867 0.567,-1.106 0.186,-0.359 0.319,-0.601 0.399,-0.727 0.079,-0.127 0.152,-0.19 0.219,-0.19 0.093,0 0.173,0.067 0.239,0.2 0.066,0.132 0.206,0.418 0.418,0.856 l 4.882,10.361 h 0.059 l 0.957,-10.281 c 0.026,-0.186 0.033,-0.348 0.02,-0.488 -0.014,-0.139 -0.047,-0.216 -0.1,-0.229 -0.093,-0.014 -0.139,-0.06 -0.139,-0.14 0,-0.053 0.036,-0.092 0.109,-0.119 0.073,-0.027 0.223,-0.053 0.448,-0.08 0.186,-0.013 0.442,-0.026 0.768,-0.04 0.325,-0.013 0.66,-0.026 1.006,-0.04 0.345,-0.013 0.664,-0.023 0.956,-0.029 0.292,-0.007 0.491,-0.01 0.598,-0.01 0.119,0 0.219,0.013 0.298,0.039 0.08,0.027 0.12,0.073 0.12,0.14 0,0.066 -0.053,0.1 -0.159,0.1 -0.107,0 -0.276,0.006 -0.508,0.019 -0.233,0.014 -0.495,0.067 -0.787,0.16 -0.213,0.066 -0.385,0.182 -0.518,0.349 -0.133,0.165 -0.236,0.348 -0.309,0.547 -0.073,0.2 -0.13,0.406 -0.169,0.618 -0.04,0.213 -0.067,0.412 -0.08,0.598 z" />
          </g>
          <g
             transform="translate(264.2773,156.534)"
             id="g4540"
             style="fill:#000000">
            <path
               inkscape:connector-curvature="0"
               id="path4542"
               style="fill:#000000;fill-opacity:1;fill-rule:nonzero;stroke:none"
               d="M 0,0 C 0,0.093 0.04,0.139 0.119,0.139 H 0.458 0.916 C 1.076,0.139 1.225,0.136 1.365,0.13 1.504,0.123 1.607,0.113 1.674,0.1 1.913,0.073 2.162,0.027 2.421,-0.04 2.68,-0.106 2.982,-0.252 3.327,-0.478 3.712,-0.744 4.028,-1.042 4.274,-1.375 4.519,-1.707 4.715,-2.052 4.861,-2.411 5.008,-2.769 5.11,-3.128 5.17,-3.487 5.23,-3.845 5.26,-4.171 5.26,-4.463 5.26,-5.021 5.163,-5.482 4.971,-5.847 4.778,-6.213 4.539,-6.502 4.254,-6.714 3.968,-6.927 3.663,-7.076 3.337,-7.163 3.012,-7.249 2.716,-7.292 2.451,-7.292 c -0.093,0 -0.21,0.003 -0.349,0.01 -0.139,0.007 -0.292,0.02 -0.458,0.04 -0.166,0.02 -0.333,0.05 -0.498,0.089 -0.167,0.04 -0.316,0.094 -0.449,0.16 -0.159,0.08 -0.279,0.159 -0.358,0.239 -0.08,0.08 -0.143,0.176 -0.19,0.289 -0.046,0.113 -0.076,0.252 -0.089,0.418 -0.014,0.166 -0.027,0.369 -0.04,0.608 0,0.08 -0.003,0.276 -0.01,0.588 C 0.003,-4.539 0,-4.171 0,-3.745 v 1.334 1.275 z m 0,6.316 c 0,0.106 0.08,0.179 0.239,0.219 0.159,0.04 0.332,0.067 0.518,0.08 0.186,0.013 0.332,0.02 0.438,0.02 0.492,0 0.907,-0.1 1.246,-0.299 C 2.779,6.137 3.055,5.874 3.268,5.549 3.48,5.223 3.636,4.855 3.736,4.443 3.835,4.031 3.885,3.62 3.885,3.208 3.885,2.796 3.819,2.418 3.686,2.072 3.553,1.727 3.38,1.435 3.168,1.196 3.062,1.076 2.959,0.983 2.859,0.917 2.759,0.85 2.647,0.797 2.52,0.757 2.394,0.717 2.238,0.694 2.052,0.687 1.866,0.681 1.634,0.677 1.355,0.677 0.983,0.677 0.704,0.687 0.518,0.707 0.332,0.727 0.206,0.744 0.139,0.757 0.046,0.797 0,0.87 0,0.976 Z m -1.594,-8.408 c 0,-0.956 -0.003,-1.81 -0.01,-2.56 -0.006,-0.751 -0.036,-1.338 -0.09,-1.763 -0.039,-0.292 -0.096,-0.538 -0.169,-0.738 -0.073,-0.199 -0.209,-0.318 -0.408,-0.358 -0.093,-0.027 -0.193,-0.047 -0.299,-0.06 -0.106,-0.013 -0.206,-0.02 -0.299,-0.02 -0.106,0 -0.159,-0.04 -0.159,-0.119 0,-0.107 0.106,-0.16 0.318,-0.16 0.146,0 0.326,0.007 0.538,0.02 0.213,0.013 0.419,0.02 0.618,0.02 0.213,0.013 0.392,0.02 0.538,0.02 h 0.259 c 0.04,0 0.179,-0.003 0.418,-0.01 0.239,-0.007 0.505,-0.023 0.797,-0.05 0.292,-0.013 0.578,-0.026 0.857,-0.04 0.279,-0.013 0.471,-0.019 0.578,-0.019 0.85,0 1.594,0.126 2.231,0.378 0.638,0.252 1.166,0.585 1.584,0.996 0.418,0.412 0.734,0.877 0.946,1.395 0.213,0.518 0.319,1.042 0.319,1.574 0,0.584 -0.109,1.109 -0.328,1.574 -0.22,0.465 -0.499,0.873 -0.837,1.225 C 5.469,-0.435 5.097,-0.143 4.692,0.09 4.287,0.322 3.898,0.498 3.527,0.618 3.766,0.857 3.995,1.103 4.214,1.355 4.433,1.607 4.632,1.876 4.812,2.162 4.991,2.447 5.134,2.756 5.24,3.088 5.346,3.42 5.399,3.792 5.399,4.204 5.399,4.456 5.346,4.752 5.24,5.091 5.134,5.429 4.931,5.755 4.632,6.067 4.333,6.379 3.925,6.645 3.407,6.864 2.889,7.083 2.225,7.193 1.415,7.193 c -0.465,0 -0.884,-0.01 -1.256,-0.03 -0.372,-0.02 -0.677,-0.03 -0.916,-0.03 -0.027,0 -0.116,0.003 -0.269,0.01 -0.153,0.007 -0.339,0.013 -0.558,0.02 -0.219,0.006 -0.455,0.013 -0.707,0.02 -0.252,0.006 -0.492,0.01 -0.718,0.01 -0.212,0 -0.318,-0.053 -0.318,-0.16 0,-0.08 0.053,-0.119 0.159,-0.119 0.093,0 0.209,-0.004 0.349,-0.01 C -2.68,6.897 -2.57,6.88 -2.49,6.854 -2.158,6.788 -1.939,6.668 -1.833,6.495 -1.727,6.323 -1.66,6.064 -1.634,5.718 -1.62,5.559 -1.61,5.39 -1.604,5.21 -1.597,5.031 -1.594,4.788 -1.594,4.483 V 3.307 1.415 Z" />
          </g>
          <g
             transform="translate(275.9923,156.7732)"
             id="g4544"
             style="fill:#000000">
            <path
               inkscape:connector-curvature="0"
               id="path4546"
               style="fill:#000000;fill-opacity:1;fill-rule:nonzero;stroke:none"
               d="m 0,0 c 0,1.089 0.146,2.042 0.438,2.859 0.292,0.817 0.698,1.501 1.216,2.052 0.518,0.551 1.132,0.963 1.843,1.235 0.71,0.273 1.484,0.409 2.321,0.409 0.783,0 1.54,-0.16 2.271,-0.478 0.731,-0.319 1.375,-0.787 1.933,-1.405 0.557,-0.618 1.006,-1.385 1.345,-2.301 0.338,-0.917 0.507,-1.973 0.507,-3.168 0,-1.448 -0.202,-2.62 -0.607,-3.516 C 10.862,-5.21 10.37,-5.904 9.793,-6.395 9.215,-6.887 8.614,-7.216 7.989,-7.382 7.365,-7.548 6.827,-7.631 6.376,-7.631 c -0.904,0 -1.741,0.179 -2.511,0.538 -0.77,0.359 -1.444,0.87 -2.022,1.534 C 1.265,-4.895 0.814,-4.091 0.488,-3.148 0.163,-2.205 0,-1.156 0,0 m -1.893,-0.558 c 0,-0.903 0.146,-1.816 0.439,-2.739 0.292,-0.924 0.75,-1.764 1.374,-2.521 0.625,-0.757 1.425,-1.375 2.401,-1.853 0.976,-0.478 2.149,-0.717 3.517,-0.717 1.195,0 2.284,0.216 3.267,0.647 0.983,0.432 1.82,1.017 2.511,1.754 0.69,0.737 1.225,1.6 1.603,2.59 0.379,0.989 0.568,2.042 0.568,3.158 0,1.155 -0.199,2.195 -0.597,3.118 C 12.791,3.802 12.243,4.586 11.546,5.23 10.848,5.874 10.022,6.369 9.065,6.714 8.109,7.06 7.073,7.232 5.957,7.232 5.041,7.232 4.211,7.116 3.467,6.884 2.723,6.651 2.059,6.336 1.474,5.937 0.89,5.539 0.388,5.077 -0.03,4.552 -0.448,4.028 -0.797,3.477 -1.076,2.899 -1.355,2.321 -1.561,1.733 -1.694,1.136 -1.826,0.538 -1.893,-0.027 -1.893,-0.558" />
          </g>
          <g
             transform="translate(295.3383,155.2589)"
             id="g4548"
             style="fill:#000000">
            <path
               inkscape:connector-curvature="0"
               id="path4550"
               style="fill:#000000;fill-opacity:1;fill-rule:nonzero;stroke:none"
               d="m 0,0 c -0.08,0 -0.1,0.047 -0.06,0.139 l 1.754,5.38 c 0.092,0.292 0.192,0.292 0.298,0 L 3.885,0.139 C 3.912,0.047 3.885,0 3.805,0 Z m -2.789,-4.403 c -0.186,-0.505 -0.395,-0.927 -0.628,-1.265 -0.232,-0.339 -0.581,-0.542 -1.046,-0.608 -0.08,-0.013 -0.179,-0.023 -0.299,-0.03 -0.119,-0.006 -0.212,-0.01 -0.279,-0.01 -0.119,0 -0.179,-0.04 -0.179,-0.119 0,-0.107 0.126,-0.16 0.378,-0.16 0.24,0 0.479,0.004 0.718,0.01 0.239,0.007 0.465,0.014 0.677,0.02 0.213,0.007 0.395,0.013 0.548,0.02 0.153,0.007 0.256,0.01 0.309,0.01 0.053,0 0.143,-0.003 0.269,-0.01 0.126,-0.007 0.262,-0.013 0.408,-0.02 0.146,-0.006 0.299,-0.013 0.458,-0.02 0.16,-0.006 0.299,-0.01 0.419,-0.01 0.199,0 0.299,0.053 0.299,0.16 0,0.079 -0.067,0.119 -0.199,0.119 h -0.2 c -0.172,0 -0.342,0.047 -0.508,0.14 -0.166,0.093 -0.249,0.239 -0.249,0.438 0,0.372 0.093,0.817 0.279,1.335 l 1.196,3.526 c 0.039,0.107 0.106,0.16 0.199,0.16 h 4.283 c 0.08,0 0.14,-0.04 0.18,-0.12 L 6.096,-5.738 C 6.163,-5.897 6.176,-6.02 6.136,-6.106 6.096,-6.193 6.043,-6.249 5.977,-6.276 5.884,-6.302 5.838,-6.349 5.838,-6.415 c 0,-0.067 0.053,-0.103 0.159,-0.11 0.106,-0.007 0.252,-0.017 0.438,-0.03 0.346,-0.013 0.688,-0.023 1.026,-0.03 0.339,-0.006 0.648,-0.01 0.927,-0.01 h 0.737 0.438 c 0.107,0 0.2,0.01 0.279,0.03 0.08,0.02 0.12,0.063 0.12,0.13 0,0.079 -0.067,0.119 -0.199,0.119 -0.107,0 -0.229,0.007 -0.369,0.02 -0.139,0.013 -0.282,0.047 -0.428,0.1 C 8.859,-6.17 8.743,-6.123 8.617,-6.057 8.491,-5.99 8.358,-5.878 8.218,-5.718 8.079,-5.559 7.926,-5.34 7.76,-5.061 7.594,-4.782 7.425,-4.423 7.252,-3.985 7.053,-3.48 6.804,-2.849 6.505,-2.092 6.206,-1.335 5.894,-0.535 5.569,0.309 5.243,1.152 4.914,2.006 4.582,2.869 4.25,3.732 3.948,4.526 3.676,5.25 3.403,5.974 3.171,6.588 2.979,7.093 2.786,7.598 2.663,7.91 2.61,8.029 2.49,8.335 2.404,8.531 2.351,8.617 2.298,8.703 2.238,8.747 2.172,8.747 2.105,8.747 2.045,8.7 1.992,8.607 1.939,8.514 1.853,8.302 1.733,7.969 Z" />
          </g>
          <g
             transform="translate(310.9986,162.87)"
             id="g4552"
             style="fill:#000000">
            <path
               inkscape:connector-curvature="0"
               id="path4554"
               style="fill:#000000;fill-opacity:1;fill-rule:nonzero;stroke:none"
               d="m 0,0 2.51,-0.04 c 0.478,-0.013 0.874,-0.05 1.186,-0.109 0.312,-0.06 0.558,-0.137 0.737,-0.23 0.179,-0.093 0.309,-0.206 0.388,-0.338 0.08,-0.133 0.127,-0.273 0.14,-0.419 l 0.02,-0.219 c 0.013,-0.146 0.03,-0.239 0.05,-0.279 0.02,-0.04 0.056,-0.06 0.109,-0.06 0.093,0 0.14,0.087 0.14,0.259 0,0.053 0.003,0.17 0.01,0.349 0.006,0.179 0.013,0.382 0.02,0.608 0.006,0.225 0.013,0.451 0.02,0.677 C 5.336,0.425 5.34,0.611 5.34,0.757 5.34,0.823 5.336,0.88 5.33,0.926 5.323,0.973 5.293,0.996 5.24,0.996 5.2,0.996 5.134,0.986 5.041,0.966 4.948,0.946 4.828,0.923 4.682,0.896 4.523,0.87 4.327,0.847 4.094,0.827 3.862,0.807 3.586,0.797 3.267,0.797 h -7.471 c -0.119,0 -0.339,0.01 -0.657,0.03 -0.319,0.02 -0.625,0.043 -0.917,0.069 -0.266,0.027 -0.462,0.073 -0.588,0.14 -0.126,0.066 -0.222,0.1 -0.289,0.1 -0.039,0 -0.076,-0.047 -0.109,-0.14 C -6.798,0.903 -6.827,0.823 -6.854,0.757 -6.867,0.717 -6.897,0.598 -6.944,0.398 -6.99,0.199 -7.04,-0.02 -7.093,-0.259 c -0.053,-0.239 -0.1,-0.462 -0.139,-0.668 -0.04,-0.206 -0.06,-0.335 -0.06,-0.388 0,-0.12 0.033,-0.179 0.099,-0.179 0.08,0 0.147,0.066 0.2,0.199 0.026,0.066 0.063,0.143 0.109,0.229 0.047,0.086 0.123,0.216 0.229,0.389 0.08,0.119 0.173,0.219 0.279,0.298 0.106,0.08 0.24,0.143 0.399,0.189 0.159,0.047 0.348,0.084 0.568,0.11 0.219,0.027 0.481,0.04 0.787,0.04 L -1.674,0 v -8.428 c 0,-0.956 -0.003,-1.81 -0.01,-2.56 -0.006,-0.751 -0.036,-1.338 -0.089,-1.763 -0.04,-0.292 -0.097,-0.538 -0.17,-0.738 -0.073,-0.199 -0.209,-0.318 -0.408,-0.358 -0.093,-0.027 -0.193,-0.047 -0.299,-0.06 -0.106,-0.013 -0.206,-0.02 -0.299,-0.02 -0.106,0 -0.159,-0.04 -0.159,-0.119 0,-0.107 0.106,-0.16 0.319,-0.16 0.146,0 0.325,0.004 0.538,0.01 0.212,0.007 0.418,0.014 0.617,0.02 0.199,0.007 0.375,0.013 0.528,0.02 0.153,0.007 0.242,0.01 0.269,0.01 0.027,0 0.116,-0.003 0.269,-0.01 0.153,-0.007 0.345,-0.013 0.578,-0.02 0.232,-0.006 0.488,-0.013 0.767,-0.02 0.279,-0.006 0.558,-0.01 0.837,-0.01 0.212,0 0.318,0.053 0.318,0.16 0,0.079 -0.053,0.119 -0.159,0.119 -0.093,0 -0.229,0.007 -0.408,0.02 -0.18,0.013 -0.342,0.033 -0.488,0.06 -0.306,0.04 -0.505,0.159 -0.598,0.358 -0.093,0.2 -0.153,0.446 -0.18,0.738 -0.053,0.425 -0.083,1.012 -0.089,1.763 C 0.003,-10.238 0,-9.384 0,-8.428 Z" />
          </g>
          <g
             transform="translate(321.6778,148.3853)"
             id="g4556"
             style="fill:#000000">
            <path
               inkscape:connector-curvature="0"
               id="path4558"
               style="fill:#000000;fill-opacity:1;fill-rule:nonzero;stroke:none"
               d="m 0,0 c 0.545,0 1.076,0.063 1.594,0.189 0.518,0.126 0.989,0.342 1.414,0.648 0.346,0.239 0.628,0.508 0.847,0.807 0.219,0.298 0.392,0.601 0.518,0.906 0.126,0.306 0.213,0.598 0.259,0.877 0.047,0.279 0.07,0.518 0.07,0.717 0,0.399 -0.04,0.78 -0.12,1.146 C 4.503,5.655 4.353,6.02 4.134,6.385 3.915,6.751 3.616,7.133 3.238,7.531 2.859,7.93 2.378,8.361 1.793,8.826 L 1.235,9.265 C 0.757,9.636 0.362,9.968 0.05,10.261 c -0.312,0.292 -0.562,0.564 -0.747,0.817 -0.186,0.252 -0.316,0.501 -0.389,0.747 -0.073,0.245 -0.109,0.508 -0.109,0.787 0,0.73 0.235,1.298 0.707,1.703 0.471,0.405 1.052,0.608 1.743,0.608 0.452,0 0.83,-0.043 1.136,-0.13 0.305,-0.086 0.554,-0.189 0.747,-0.308 0.193,-0.12 0.335,-0.24 0.428,-0.359 0.093,-0.119 0.153,-0.206 0.179,-0.259 0.067,-0.106 0.124,-0.269 0.17,-0.488 0.046,-0.219 0.076,-0.389 0.09,-0.508 0.013,-0.08 0.026,-0.143 0.039,-0.19 0.014,-0.046 0.054,-0.069 0.12,-0.069 0.093,0 0.139,0.152 0.139,0.458 0,0.677 0.014,1.185 0.04,1.524 0.027,0.339 0.04,0.535 0.04,0.588 0,0.093 -0.066,0.139 -0.199,0.139 -0.08,0 -0.17,0.007 -0.269,0.02 -0.1,0.014 -0.243,0.04 -0.428,0.08 -0.253,0.066 -0.528,0.116 -0.827,0.149 -0.299,0.034 -0.641,0.05 -1.026,0.05 -0.638,0 -1.209,-0.086 -1.714,-0.259 -0.505,-0.173 -0.936,-0.418 -1.295,-0.737 -0.358,-0.319 -0.634,-0.697 -0.827,-1.136 -0.192,-0.438 -0.288,-0.923 -0.288,-1.454 0,-0.345 0.036,-0.681 0.109,-1.006 0.073,-0.326 0.206,-0.664 0.398,-1.016 C -1.79,9.66 -1.528,9.298 -1.195,8.926 -0.863,8.554 -0.432,8.149 0.099,7.711 L 0.996,6.973 C 1.421,6.615 1.78,6.293 2.072,6.007 2.364,5.721 2.6,5.442 2.779,5.17 2.959,4.898 3.088,4.619 3.168,4.333 3.248,4.048 3.287,3.732 3.287,3.387 3.287,3.068 3.228,2.749 3.108,2.431 2.989,2.112 2.812,1.83 2.58,1.584 2.348,1.338 2.052,1.136 1.694,0.976 1.335,0.817 0.916,0.737 0.438,0.737 c -0.332,0 -0.657,0.037 -0.976,0.11 -0.319,0.073 -0.614,0.189 -0.887,0.348 -0.272,0.16 -0.501,0.369 -0.687,0.628 -0.186,0.259 -0.319,0.575 -0.398,0.946 -0.027,0.147 -0.043,0.283 -0.05,0.409 -0.007,0.126 -0.01,0.235 -0.01,0.329 0,0.146 -0.047,0.219 -0.14,0.219 -0.093,0 -0.146,-0.107 -0.159,-0.319 C -2.882,3.248 -2.902,2.982 -2.929,2.61 -2.955,2.238 -2.969,1.8 -2.969,1.295 c 0,-0.266 0.014,-0.442 0.04,-0.528 C -2.902,0.681 -2.816,0.604 -2.67,0.538 -2.258,0.339 -1.826,0.199 -1.375,0.119 -0.923,0.04 -0.465,0 0,0" />
          </g>
          <g
             transform="translate(252.7585,175.8258)"
             id="g4560"
             style="fill:#000000">
            <path
               inkscape:connector-curvature="0"
               id="path4562"
               style="fill:#000000;fill-opacity:1;fill-rule:evenodd;stroke:none"
               d="m 0,0 c -51.826,-0.305 -103.383,0.291 -154.67,1.789 l -2.824,28.777 C -87.727,40.404 -35.05,42.595 2.861,37.733 37.49,33.292 59.992,23.014 68.04,6.305 66.034,2.737 43.354,0.636 0,0 m 9.227,39.319 c 4.068,8.404 -7.234,23.686 -33.069,47.143 l -1.654,-0.163 C -5.021,64.598 6.142,49.669 7.346,42.212 6.567,40.876 4.348,40.732 0.69,41.779 c -1.066,4.597 -11.648,19.006 -31.748,43.227 -0.578,0.643 -0.796,0.053 -0.655,-1.77 17.375,-22.733 27.524,-37.256 29.975,-42.403 -39.282,5.465 -95.363,3.119 -158.508,-5.14 l 3.82,-37.554 74.37,-1.086 54.781,0.036 C 32.215,-2.202 64.443,0.584 69.408,5.448 65.712,21.36 45.597,33.219 9.227,39.319" />
          </g>
          <g
             transform="translate(333.5501,161.7775)"
             id="g4564"
             style="fill:#000000">
            <path
               inkscape:connector-curvature="0"
               id="path4566"
               style="fill:#000000;fill-opacity:1;fill-rule:nonzero;stroke:none"
               d="m 0,0 c 0,0.273 -0.137,0.461 -0.498,0.461 h -0.745 v -1.083 h 0.683 c 0.361,0 0.56,0.175 0.56,0.522 z m 0.685,-2.798 c -0.486,0 -0.673,0.185 -0.673,0.646 v 0.435 c 0,0.312 -0.137,0.548 -0.521,0.548 h -0.734 v -1.592 h -0.884 v 3.893 h 1.741 C 0.511,1.132 0.87,0.685 0.87,0.037 V 0 c 0,-0.461 -0.185,-0.759 -0.696,-0.87 0.511,-0.076 0.71,-0.449 0.71,-0.847 V -2.09 c 0,-0.162 0.062,-0.25 0.211,-0.298 v -0.41 z m -1.419,5.709 c -2.177,0 -3.67,-1.668 -3.67,-3.744 0,-2.078 1.493,-3.756 3.67,-3.756 2.19,0 3.694,1.678 3.694,3.756 0,2.076 -1.504,3.744 -3.694,3.744 m 0,-8.122 c -2.499,0 -4.366,1.964 -4.366,4.378 0,2.414 1.867,4.367 4.366,4.367 2.525,0 4.379,-1.953 4.379,-4.367 0,-2.414 -1.854,-4.378 -4.379,-4.378" />
          </g>
          <g
             transform="translate(146.8955,261.1473)"
             id="g4568"
             style="fill:#000000">
            <path
               inkscape:connector-curvature="0"
               id="path4570"
               style="fill:#000000;fill-opacity:1;fill-rule:nonzero;stroke:none"
               d="m 0,0 -0.288,-0.01 63.91,6.289 c 29.777,2.327 52.625,3.494 68.347,3.494 6.266,0 11.404,-0.187 15.391,-0.557 C 117.376,5.486 67.856,2.388 0,0 m 159.713,9.491 c 0.048,0.747 -0.243,1.45 -0.845,2.041 C 152.296,17.997 99.96,15.21 -1.128,3.001 l -0.576,-0.069 -0.076,-3.089 0.061,0.005 v -2.154 l 80.898,1.764 1.613,0.124 c 48.99,0.732 74.626,3.357 78.372,8.027 0.466,0.578 0.655,1.227 0.549,1.882" />
          </g>
        </g>
      </g>
    </g>
  </g>
</svg>
