<svg xmlns="http://www.w3.org/2000/svg" viewBox="274.8 236.5 555.6 368.5"><style type="text/css">  
	.st0{fill:#000000;}
</style><path class="st0" d="M274.8 478.6c18.6 5 36.2 9.7 54.6 14.7 3.8-20 7.5-39.8 11.3-60.4 29.8 32.4 59.1 64.2 88.7 96.4 -9.4 8.9-18.7 17.6-28.1 26.5 -11-12.5-21.7-24.8-33.2-37.9 -2.8 11-5.3 21-8 31.6 -11.1-4.5-21.8-8.8-33.8-13.6 6.8 18 13.2 34.9 19.7 52.2 -12 5.6-23.8 11.1-36.4 17C298 563 286.6 521.4 274.8 478.6z"/><path class="st0" d="M476.6 481c3.2 10.1 5.9 18.8 8.8 27.9 -10.6 2.7-20.5 5.5-30.6 7.7 -1.1 0.2-3.3-1.7-3.9-3.1 -8.5-18.5-16.7-37.1-25-55.7 -8.5-19-17-38-25.5-57 -0.5-1.1-0.9-2.2-1.5-3.7 17.1-12.7 34.9-23.1 56.9-22.8 17 0.3 28 9.3 31.9 25.9 3.4 14.5 1.3 28.2-6.3 41 -0.5 0.8-0.9 1.6-1.7 2.9 19.9 6.5 39.4 13 59.6 19.6 -6.4 12.6-12.6 24.7-18.9 37.1C506 494.4 491.9 488 476.6 481zM450.7 434.2c0.5-0.1 1.1-0.1 1.6-0.2 0.5-6 1.2-12 1.6-18 0.1-1.6-0.5-3.4-1.3-4.8 -2.1-3.4-5.3-2.9-8-1.2 -1.6 1-4 3.7-3.6 4.5C443.8 421.2 447.3 427.7 450.7 434.2z"/><path class="st0" d="M628.4 448.1c-16-12.3-31.2-23.8-47.5-36.3 3.3 14.1 6.3 26.9 9.5 40.9 -9.9 0-19.1 0.2-28.4-0.2 -1.2 0-2.9-2.7-3.4-4.5 -9.5-32.7-18.9-65.4-28.4-98.2 -1.3-4.4-2.5-8.8-4.1-14.3 19.5 8.6 38 16.7 57.1 25 0-16.6 0-32.4 0-48.6 13.4-2.2 26.6-4.4 40.8-6.8C625.6 352.7 627 399.8 628.4 448.1z"/><path class="st0" d="M639.7 442.9c-1.5-47.4-3-94.8-4.5-142.8 2.6 0.5 4.7 0.8 6.7 1.3 20.3 5.4 39 13.9 53 30.2 24.1 28.1 19.1 72.4-10.5 94.6C672.5 435.2 651.8 443 639.7 442.9zM663.9 387.2c0.7 0.2 1.3 0.4 2 0.5 2.6-4.4 5.8-8.6 7.7-13.4 3-7.5-1.8-13.7-9.7-13.7C663.9 369.6 663.9 378.4 663.9 387.2z"/><path class="st0" d="M717.4 290.5c11.8 0 22.7-0.1 33.7 0.1 1.2 0 2.9 1.2 3.6 2.3 17.7 26 35.3 52.1 53.4 78.7 -9.9 7.7-19.7 15.3-29.9 23.2 -3.7-5.8-7.4-11.4-11.2-17.4 -4.5 2.2-8.8 4.1-12.9 6.4 -0.9 0.5-1.6 2.5-1.5 3.7 0.5 5.5 1.4 11 1.9 16.5 0.1 1.4-0.6 3.7-1.6 4.1 -11.6 5.2-23.4 10.2-35.3 15.4C717.4 378.9 717.4 334.8 717.4 290.5zM745.8 354.2c3.9-1.9 7.2-3.5 10.8-5.3 -3.4-6.2-6.5-11.8-9.6-17.4 -0.4 0.1-0.8 0.3-1.2 0.4C745.8 339.1 745.8 346.2 745.8 354.2z"/><path class="st0" d="M492.9 236.5c14.6 13.5 27.1 27.6 28.1 48.1 0.3 6.4-1.1 13.4-3.7 19.2 -8 17.3-21.4 29.5-39 37 -3 1.3-5 1.4-6.5-2.2 -1.9-4.4-4.4-8.5-6.7-12.6 -7.8-14-6.3-27.1 3.5-39.5 9-11.3 16-23.7 20.6-37.4C490.6 245.1 491.6 241.1 492.9 236.5z"/><path class="st0" d="M481.3 359.8c10.5-6 20.5-11.7 31-17.7 10.8 31.6 21.4 62.7 32.2 94.4 -9.4 2.1-18.3 4.1-27.6 6.2C505 415.1 493.3 387.7 481.3 359.8z"/><path class="st0" d="M432.3 490.4c-5.2 4.3-10 8.3-15.4 12.8 -19.1-24-38-47.8-57.2-71.8 9.3-7.7 18.3-15.2 27.8-23.1C402.5 435.8 417.3 462.9 432.3 490.4z"/><path class="st0" d="M816.1 367.7c-0.4-0.6-0.7-1.2-0.8-1.9 -0.2-0.7-0.3-1.3-0.3-2 0-0.7 0-1.3 0.2-2 0.2-0.6 0.4-1.3 0.7-1.8s0.7-1.1 1.1-1.6c0.5-0.5 1-0.9 1.6-1.3s1.2-0.7 1.9-0.8c0.7-0.2 1.3-0.3 2-0.3 0.7 0 1.3 0.1 2 0.2 0.6 0.1 1.3 0.4 1.8 0.7 0.6 0.3 1.1 0.7 1.6 1.2 0.5 0.5 0.9 1 1.3 1.6 0.4 0.6 0.7 1.2 0.8 1.9 0.2 0.7 0.3 1.3 0.3 2 0 0.7-0.1 1.3-0.2 2 -0.2 0.6-0.4 1.3-0.7 1.8 -0.3 0.6-0.7 1.1-1.2 1.6 -0.5 0.5-1 0.9-1.6 1.3 -0.6 0.4-1.2 0.7-1.9 0.8 -0.7 0.2-1.3 0.3-2 0.3 -0.7 0-1.3-0.1-2-0.2 -0.6-0.1-1.3-0.4-1.8-0.7 -0.6-0.3-1.1-0.7-1.6-1.1C816.9 368.9 816.5 368.4 816.1 367.7zM817 367.2c0.3 0.5 0.7 1 1.1 1.4 0.4 0.4 0.9 0.8 1.4 1 0.5 0.3 1 0.5 1.6 0.6 0.6 0.1 1.1 0.2 1.7 0.2 0.6 0 1.1-0.1 1.7-0.3 0.6-0.2 1.1-0.4 1.6-0.7 0.8-0.5 1.4-1.1 1.9-1.8 0.5-0.7 0.9-1.5 1-2.3 0.2-0.8 0.2-1.7 0.1-2.6 -0.1-0.9-0.5-1.7-0.9-2.5 -0.3-0.5-0.7-1-1.2-1.4 -0.4-0.4-0.9-0.8-1.4-1 -0.5-0.3-1-0.5-1.6-0.6 -0.6-0.1-1.1-0.2-1.7-0.2 -0.6 0-1.1 0.1-1.7 0.3s-1.1 0.4-1.6 0.7c-0.8 0.5-1.4 1.1-1.9 1.8 -0.5 0.7-0.8 1.5-1 2.3 -0.2 0.8-0.2 1.7-0.1 2.6C816.2 365.6 816.5 366.4 817 367.2zM821.9 365.3l2 3.2 -1.4 0.9 -5-8 2.6-1.6c1-0.6 1.9-0.9 2.6-0.9 0.7 0.1 1.3 0.5 1.8 1.2 0.3 0.6 0.5 1.1 0.4 1.7 -0.1 0.6-0.4 1.2-0.9 1.7 0.1 0 0.3 0 0.4 0.1 0.1 0 0.3 0.1 0.4 0.2l3.9 1.7 -1.3 0.8c-0.2 0.1-0.4 0.1-0.6 0l-3.5-1.6c-0.1 0-0.2-0.1-0.3-0.1 -0.1 0-0.2 0.1-0.4 0.1L821.9 365.3zM821.2 364.3l1-0.6c0.3-0.2 0.6-0.4 0.8-0.6 0.2-0.2 0.3-0.4 0.4-0.6 0.1-0.2 0.1-0.4 0-0.6 0-0.2-0.1-0.4-0.3-0.7 -0.1-0.2-0.3-0.4-0.4-0.5 -0.2-0.1-0.3-0.2-0.5-0.2 -0.2 0-0.4 0-0.7 0.1 -0.2 0.1-0.5 0.2-0.8 0.4l-1.2 0.7L821.2 364.3z"/></svg>