<?xml version="1.0" encoding="UTF-8" standalone="no"?>
<svg
   xmlns:dc="http://purl.org/dc/elements/1.1/"
   xmlns:cc="http://creativecommons.org/ns#"
   xmlns:rdf="http://www.w3.org/1999/02/22-rdf-syntax-ns#"
   xmlns:svg="http://www.w3.org/2000/svg"
   xmlns="http://www.w3.org/2000/svg"
   xmlns:sodipodi="http://sodipodi.sourceforge.net/DTD/sodipodi-0.dtd"
   xmlns:inkscape="http://www.inkscape.org/namespaces/inkscape"
   version="1.2"
   width="200"
   height="200"
   viewBox="0 0 200 200"
   id="svg22"
   sodipodi:docname="saab.svg"
   inkscape:version="0.92.1 r15371">
  <metadata
     id="metadata28">
    <rdf:RDF>
      <cc:Work
         rdf:about="">
        <dc:format>image/svg+xml</dc:format>
        <dc:type
           rdf:resource="http://purl.org/dc/dcmitype/StillImage" />
      </cc:Work>
    </rdf:RDF>
  </metadata>
  <defs
     id="defs26" />
  <sodipodi:namedview
     pagecolor="#ffffff"
     bordercolor="#666666"
     borderopacity="1"
     objecttolerance="10"
     gridtolerance="10"
     guidetolerance="10"
     inkscape:pageopacity="0"
     inkscape:pageshadow="2"
     inkscape:window-width="1920"
     inkscape:window-height="1017"
     id="namedview24"
     showgrid="false"
     inkscape:zoom="3.337544"
     inkscape:cx="79.173203"
     inkscape:cy="99.638814"
     inkscape:window-x="-8"
     inkscape:window-y="-8"
     inkscape:window-maximized="1"
     inkscape:current-layer="svg22" />
  <path
     fill="#D8DFE1"
     d="M100.003 199.972c55.2 0 100-44.8 100-100s-44.8-100-100-100-100 44.8-100 100c0 55.3 44.8 100 100 100"
     id="path2" />
  <path
     fill="#0D254D"
     d="M100.003 4.072c-53 0-95.9 42.9-95.9 95.9 0 53 42.9 95.9 95.9 95.9 52.9 0 95.8-42.9 95.8-95.9.1-52.9-42.8-95.9-95.8-95.9"
     id="path4"
     style="fill:#000000" />
  <path
     fill="#D8DFE1"
     d="M153.003 29.572c-14.1-14.2-33-22-52.9-22-20 0-38.8 7.8-53 22-14.1 14.2-21.9 33-21.9 53.1v36.1c.4 19.5 8.1 37.8 21.9 51.6 14.1 14.2 33 22 53 22s38.8-7.8 52.9-22c13.8-13.9 21.6-32.2 21.9-51.8l.1-36c-.1-20-7.9-38.8-22-53zm-1.4 139.3c-13.8 13.8-32.1 21.4-51.5 21.4-19.5 0-37.8-7.6-51.6-21.4-13.4-13.4-20.9-31.2-21.3-50.2.3-5.3 1.2-10.4 2.5-15.4 11.2 28.9 39 48 70.1 48 31.3 0 59.2-19.2 70.3-48.2 1.5 4.9 2.4 10 2.8 15.1-.3 19.2-7.9 37.2-21.3 50.7zm-120.8-68.8c3.7-11.3 10.3-21.5 19.1-29.8 13.6-12.6 31.4-19.6 50.3-19.6 18.4 0 36.1 7.1 49.7 19.9 8.8 8.3 15.4 18.4 19.2 29.4-10.1 29.5-37.9 49.3-69.3 49.3-31 0-58.7-19.7-69-49.2zm142.1 6c-3.5-13.9-11-26.6-21.7-36.7-14-13.2-32.2-20.5-51.1-20.5-19.4 0-37.7 7.2-51.7 20.2-10.6 9.9-18 22.5-21.3 36.3v-22.6c0-19.5 7.6-37.9 21.3-51.7 13.8-13.8 32.1-21.4 51.6-21.4 19.4 0 37.8 7.6 51.5 21.4 13.8 13.8 21.4 32.2 21.4 51.7"
     id="path6" />
  <path
     fill="#D6AB3C"
     d="M83.103 23.272c3.9-1 9.5-1.5 9.5-1.5l7.3 15.1 7.4-15.1s5 .5 9.5 1.5l6.7 19.8 1.5-17.5c5 1.4 9.5 3.3 14.9 6.3 4.9 2.6 5.8 5.6 5.4 8.7-.1.1-.4 3.1-4.1 1.8-.1 0 6.4 3.4 5 9.7-.5 2.3-2.8 3.4-6.3 1.5-3-1.7-6.4-3.6-10.4-5.1-7.1-2.8-12.3-3.7-12.3-3.7l-1.4-4.2c-4.7-.9-9.9-1.3-9.9-1.3l-1.7 3.7c-2.4-.1-6.3-.1-8.9 0l-1.6-3.7c-4.6.2-9.9 1.3-9.9 1.3l-1.4 4.2c-2.4.5-4.7 1-7.5 1.9l.4-1.3c-4.6 3.6-8.5 5.3-8.5 5.3-3 1.4-11.1 5.5-13.1 1.6-.6-.9-.5-2.8-.5-2.8 2.4-1.6 5.9-3.4 8.3-4.7 0 0-1.2 5 3.8 2.3 1.8-.9 3.7-2.2 4.6-4.1 1.2-3.3-2.4-2.6-3.8-2.2-2.3.7-10.7 3.5-10.8-2.2 0-4.1 5.5-8.2 11.4-10.7 8.8-3.6 11.8-.3 11.6 2.4-3.5 1-4.3 1.3-7.3 2.3.1-1-.7-2.6-4.4-1-3.6 1.8-4.6 3.2-4 4.7.7 2.1 6.3-.1 7.8-.4 8-1.7 6.9 3.7 6.9 3.8l5.8-16.4zm2.2 13.2c1.5-.3 4.3-.7 6.9-1l-3.8-8.3-3.1 9.3zm45.1 7.2c2.1.8 5.6 2.6 7.3 3.5 0 0 1.8 1.3 2.7.2.7-1.3.2-2.7-2.8-4.3-1.9-1.1-5.5-2.7-6.9-3.2l-.3 3.8zm.7-8.3s3.1 1.3 5.1 2.3c.8.4 1.3.7 2.2.8.7-.1 1-.5 1-.9.2-2-2-2.9-2.8-3.3-2.2-1.1-3-1.4-5.2-2.4l-.3 3.5zm-23.3.1c2.4.2 3.9.4 6.9 1 .1 0-3-9.3-3-9.3"
     id="path8"
     style="fill:#ffffff" />
  <path
     fill="#D8DFE1"
     d="M63.403 98.472c2.4 1.1 4.4 1.9 6.5 1.6 4.9-.7 6.3-2.6 10.7-1.3 2 .6 3.6 2.3 3.6 2.3s-1.2-.4-2.4-.5c-4.7-.3-8.6 3.4-13.2 2.2-4.1-1.2-5.2-4.3-5.2-4.3"
     id="path10" />
  <path
     d="M89.703 99.072c-1.6 1.3-4.9 8.6-13.5 4.5-.2.9.3 3.7 1.7 5.6 1.2 1.8 4.2 2.6 6.4 2.4-2.7 2.5-.9 6.2-.7 11.7 1.5-3 4.2-4.4 4.2-4.4s-2.7 5-2.7 7.6c-.2 4.2 4.1 7.8 7.8 13.3 1.1-6.5.8-8.8 2.1-12.6 1 2.2 2.1 13.2 1.7 17.6 6.4-5.2 13.8-5.3 10.6-19 2 2.5 3.8 7.4 4.4 10.3 3.1-5 10.3-8.1 4.7-21.2 3 2.5 4.1 6.7 5.3 8.3.9-6.3 4.5-15.9-3.3-23.1v-.1c2 .6 4.4 2.4 5.8 4.5 0-5.6 3.6-8.9-4.4-18.6 1.5-2.4 2.5-5.3 3-8.2-3 .3-6.6 1-9.1 2.3-.1-.2-.7-1.3-2.1-1.4h-22.9c-1.6 0-3 2.1-3.9 6.2-.1 0-.8-.6-1.8-1-2.7-1.1-9.3-1.1-11.2 4.8-1 2.8-.2 7.7-.2 7.7s7.2-5.3 10.6.9m5.1-6.2c-1.2-.7-1.9-2.8-.5-3.9 1-.8 3.8.7 1.6 2.9 2 1.1 3.2-.7 3.2-1.4l.7-.1c-.2 1.4-2.2 4.3-5 2.5"
     id="path12"
     fill="#D8DFE1" />
  <path
     fill="#D6AB3C"
     d="M111.403 77.172c.7 0 1.3.5 1.3.5l9-19.5c-9.7 0-6.2 6.5-6 6.8.1.4-.5.2-.5.2-.5-.6-1.4-.9-2.2-.9-1.9 0-3.4 1.5-3.4 3.3s1.5 3.4 3.4 3.4c.2 0 .5 0 .8-.1 0 0-6.6 6.2-11.8-1.8-.4-.6.5.7 2.1.7 1.8 0 3.3-1.5 3.3-3.3 0-1.8-1.5-3.4-3.3-3.4-.7 0-1.4.2-1.9.6.8-.6 1.3-1.6 1.3-2.6 0-1.8-1.5-3.4-3.3-3.4h-.1c-1.8 0-3.3 1.5-3.3 3.3 0 1.1.5 2 1.3 2.6-.5-.4-1.2-.6-1.9-.6-1.9 0-3.3 1.5-3.3 3.3s1.5 3.3 3.3 3.3c1.5 0 2.4-1.3 2.1-.7-5.3 8-11.8 1.8-11.8 1.8.2.1.5.1.8.1 1.8 0 3.3-1.5 3.3-3.3s-1.5-3.3-3.3-3.3c-.9 0-1.7.3-2.3.9 0 0-.7.2-.5-.2.1-.4 3.6-6.8-6.1-6.8l9 19.5s.6-.5 1.4-.5c.5.1 21.8.1 22.6.1"
     id="path14"
     style="fill:#ffffff" />
  <path
     d="M122.103 99.172c.5-2.1.3-5.1-4.2-10-1.5 1.6-3 3-4.7 4.3.5 6 .8 15.1-4.2 19.9 0 0 .1-3.9-2.1-8.1-.2 5.3-2.6 10.8-7.5 14.1 0 0 .8-3.7.3-10.2-.8 2.4-2.7 4.9-5.6 5.8l-1.3-6.7s2.4-1.7 2.4-1.8c0 .1.8 3.8.8 3.8 2.5-2.4.5-6.3 2.9-7.1 1.3-.4 2 .6 2.4 1.4 1.2 2.3 1.2 4.3 1.2 6.8 1.5-3.5 1.6-7 1-11-.2-1.4.5-2.1 1.3-2.3.8-.2 1.5.3 2.1 1 1.5 1.9 2.5 4.4 3.1 6.6 1-3.4 1.1-8.1-.1-11.5-.1-.6-.4-1.3-.4-1.3 3.5-3 6.7-6.4 8.5-10.8-4.9 1.4-11.2 5.3-11.2 5.3l-1.3-1.4 5-3.9c.3-.2.5-.6-.4-.6h-18.6c-1.8 0-3.5.6-3.6 3.5l2.4 2s2.9-1.1 5.6.8l-.4 1.6s-1.2-.8-1.8-.4c-1.5 3.9-4.1 4.5-6.2 3.7-2.3-1-2.7-3.7-3-5.1-4-2.3-10.3-2.7-10.7 4.4 4.3-1.9 8.6.4 9.8 2.8l11.1 3.2c-3.8 2.8-8.9 11.8-15.1 8.9 4.3 4.7 9.2-1.2 10.7 1.3 1.6 2.6-5.7 3.3-4.5 10 1.1-1.1 3.2-3.4 4.7-2 .8.8.4 1.9.2 2.3-3.2 6.7-4.6 9.8.6 15.1 1.1-8.2 1.6-10.4 3.7-10.5 3.2 0 4.2 13.7 4.4 17.1 6.3-4.1 7.2-4.8 5.2-14.8-.4-1.8-.1-2.8 1.1-3.3 1.3-.5 2.5.4 3 1.2 1.5 2.3 3 4.9 3.9 7.7 1.6-2.6 5.8-4.5 1.2-15.5-.8-1.4-.6-2.5.4-3.2 2.3-1.5 5.4 2.3 6.4 4.1-.2-3.9 1.7-8.8-4.4-15-1-1.2-1-2.1-.2-2.9 1.2-1.5 4.4-.3 6.1.7"
     id="path16"
     fill="#DB1C30"
     style="fill:#ffffff" />
  <path
     fill="#D8DFE1"
     d="M94.003 95.372c3.3-.6 2.7 2.3 6.4 3-3.1 1.2-4.6-2.5-6.4-3m20-9.9c-1.3 2-3.2 3.7-5.5 4.2 1.1-1.7 3.1-4 5.5-4.2m-67 54.9c-.7-.6-1.2-1-1.9-1.9l-.1-3.1c1.9 2 4.1 3.8 6.2 5.4l.1 3c-.8-.6-1.5-1.2-2.2-1.8v18.6c-.7-.5-1.4-1.1-2-1.6v-18.6m5.6 1.6c2.4 1.8 3.7 2.6 5.5 3.7l.1 3c-1.3-.7-2.2-1.2-3.6-2.2l.1 5.7c1.3.9 2.4 1.5 3.3 2.1v2.5c-1.1-.6-2-1.2-3.3-2v7.4c1.3.8 2.1 1.4 3.8 2.4l.1 3.2c-2.9-1.8-3.3-2.1-5.9-3.9l-.1-21.9m14.4 28.9c-5.9 3.2-9.3-10.1-6.4-20.3.5-1.9 2.3-4.4 6.1 0v2.7c-3-4.4-4.5-3.1-4.7 3.8-.2 12.3 2.7 12.1 4.9 10.6m2-16.6c.8.4 1.2.5 2.4.9v9.5c1.1.4 2.2.7 3.4 1v-9.3c1 .4 1.5.5 2.3.7v21.7c-.8-.2-1.5-.4-2.2-.7v-9.8c-1.2-.3-2.3-.7-3.5-1.1v9.6c-.7-.3-1.5-.6-2.4-1v-21.5m11.4 3.8c.9.3 1.3.3 2.1.5 1.3 4.1 2.9 10.2 4.2 14.3h.1v-13.5c.7.2 1.6.3 2.3.4v21.6c-.7-.1-1.1-.2-1.8-.3-1.3-4.1-3.2-9.8-4.4-13.9h-.1l.1 13.1c-.7-.2-1.7-.3-2.4-.5l-.1-21.7m24.5 2.1c.8-.1 1.5-.1 2.4-.3v18.9c1.8-.1 3.6-.4 5.2-.7v2.9c-2.5.4-5.2.7-7.6.9v-21.7m30.1 12.7c-4.6 5.8-9.8 3.1-9.4-7.6.2-7 3.5-13.3 9.3-11.9l.1 2.9c-7.9-3.6-7.3 11.6-6.4 14.8.9 3 2.7 2.5 4.1 1.5l-.1-6.5c-.5.2-1.1.5-1.6.8v-2.6c1.3-.5 2.8-1.2 4-1.9m2.7-11.6c.8-.4 1.5-.8 2.2-1.2l.1 21.8c-.7.4-1.5.8-2.2 1.2m5-24.7c2.1-1.2 3.8-2.6 5.6-3.9l-.1 3c-1.2.9-2.2 1.6-3.5 2.5v6c1.3-.7 2-1.2 3.2-2.2v2.5c-1.2.9-2.1 1.5-3.2 2.3l-.1 7.2c1.5-.9 2.5-1.7 3.8-2.7v2.8c-1.8 1.5-3.9 3.1-5.9 4.3l.2-21.8m7.4 12.9c1.3.9 3.6-1.6 2.9-4.6-.8-3.3-3.3-6.2-3-10.3 0-.1.5-5.7 4.4-7v2.6c-2.5.5-2.6 3.3-2.6 3.5 0 1.1.2 1.8.3 2 .6 1.5 1.5 3.3 2.1 4.8 2.8 6.5-.8 12-4 11.9l-.1-2.9m-48.4 10.4c0 6.2-1.1 11.3-5.1 11.2-3.6 0-5.1-5-5.1-11.2 0-6.2 1.5-11.2 5.1-11.2 3.9 0 5.1 5 5.1 11.2zm-5.1-8.4c-1.9 0-2.8 3.9-2.8 8.6s.9 8.4 2.8 8.4c1.8 0 2.9-3.7 2.9-8.4s-1-8.6-2.9-8.6m26.7 5.8c0 6.2-1.1 11.2-5.1 11.1-3.6 0-5.1-5-5.1-11.1s1.5-11.1 5.1-11.1c3.8 0 5.1 5 5.1 11.1zm-5.1-8.4c-1.9 0-2.9 3.9-2.9 8.5s1 8.3 2.9 8.3c1.8 0 2.8-3.7 2.8-8.3 0-4.5-1-8.5-2.8-8.5"
     id="path18" />
  <path
     d="M114.203 85.872c-1.3 2-3.2 3.7-5.5 4.2 1-1.7 3-4 5.5-4.2m-20.2 9.9c3.3-.6 2.7 2.3 6.5 3-3.1 1.3-4.5-2.4-6.5-3"
     id="path20"
     fill="#D3D2D2" />
</svg>
