<?xml version="1.0" encoding="UTF-8" standalone="no"?>
<svg
   xmlns:dc="http://purl.org/dc/elements/1.1/"
   xmlns:cc="http://creativecommons.org/ns#"
   xmlns:rdf="http://www.w3.org/1999/02/22-rdf-syntax-ns#"
   xmlns:svg="http://www.w3.org/2000/svg"
   xmlns="http://www.w3.org/2000/svg"
   xmlns:sodipodi="http://sodipodi.sourceforge.net/DTD/sodipodi-0.dtd"
   xmlns:inkscape="http://www.inkscape.org/namespaces/inkscape"
   width="205.60854"
   height="205.60854"
   id="svg2"
   sodipodi:version="0.32"
   inkscape:version="0.92.1 r15371"
   sodipodi:docname="volkswagen.svg"
   inkscape:output_extension="org.inkscape.output.svg.inkscape"
   version="1.1">
  <metadata
     id="metadata19">
    <rdf:RDF>
      <cc:Work
         rdf:about="">
        <dc:format>image/svg+xml</dc:format>
        <dc:type
           rdf:resource="http://purl.org/dc/dcmitype/StillImage" />
      </cc:Work>
    </rdf:RDF>
  </metadata>
  <sodipodi:namedview
     inkscape:window-height="1017"
     inkscape:window-width="1920"
     inkscape:pageshadow="2"
     inkscape:pageopacity="0.0"
     guidetolerance="10.0"
     gridtolerance="10.0"
     objecttolerance="10.0"
     borderopacity="1.0"
     bordercolor="#666666"
     pagecolor="#ffffff"
     id="base"
     showgrid="false"
     inkscape:zoom="3.3895697"
     inkscape:cx="47.592712"
     inkscape:cy="100.25878"
     inkscape:window-x="-8"
     inkscape:window-y="-8"
     inkscape:current-layer="g12"
     inkscape:window-maximized="1" />
  <defs
     id="defs4">
    <inkscape:perspective
       sodipodi:type="inkscape:persp3d"
       inkscape:vp_x="0 : 102.80426 : 1"
       inkscape:vp_y="0 : 1066.6667 : 0"
       inkscape:vp_z="205.60853 : 102.80426 : 1"
       inkscape:persp3d-origin="102.80426 : 68.536176 : 1"
       id="perspective21" />
    <marker
       id="ArrowEnd"
       viewBox="0 0 10 10"
       refX="0"
       refY="5"
       markerUnits="strokeWidth"
       markerWidth="4"
       markerHeight="3"
       orient="auto">
      <path
         d="M 0,0 10.666667,5.3333333 0,10.666667 Z"
         id="path7"
         inkscape:connector-curvature="0"
         style="stroke-width:1.06666672" />
    </marker>
    <marker
       id="ArrowStart"
       viewBox="0 0 10 10"
       refX="10"
       refY="5"
       markerUnits="strokeWidth"
       markerWidth="4"
       markerHeight="3"
       orient="auto">
      <path
         d="M 10.666667,0 0,5.3333333 10.666667,10.666667 Z"
         id="path10"
         inkscape:connector-curvature="0"
         style="stroke-width:1.06666672" />
    </marker>
  </defs>
  <g
     id="g12">
    <path
       style="fill:#000000;fill-opacity:1;fill-rule:evenodd;stroke:none;stroke-width:1.06666672"
       d="M 102.84375 0.875 C 46.72339 0.875 0.875 46.645409 0.875 102.84961 C 0.875 158.88537 46.723389 204.73242 102.84375 204.73242 C 158.96347 204.73242 204.73242 158.88537 204.73242 102.84961 C 204.73242 46.645409 158.96347 0.88085938 102.84375 0.88085938 L 102.84375 0.875 z M 102.84375 13.820312 L 102.84766 13.820312 L 102.84961 13.820312 C 151.78644 13.823515 191.78711 53.827594 191.78711 102.84961 C 191.78711 151.7891 151.78325 191.70898 102.84375 191.70898 C 53.909209 191.70898 13.904297 151.7891 13.904297 102.84961 C 13.904297 53.827593 53.906923 13.823515 102.84375 13.820312 z M 102.84375 26.433594 C 96.249241 26.433594 89.818294 27.268373 83.720703 28.853516 L 103.09766 82.304688 L 122.38867 28.939453 C 116.12316 27.269071 109.52757 26.433594 102.84375 26.433594 z M 64.841797 36.535156 C 56.577545 41.295679 49.311819 47.557528 43.298828 54.992188 L 75.203125 137.75586 L 86.892578 107.52539 L 117.54297 107.52539 L 129.23047 137.75586 L 161.46875 53.994141 C 155.78844 47.140871 148.94182 41.296421 141.25781 36.789062 L 118.88086 98.421875 L 87.308594 98.421875 L 64.841797 36.535156 z M 174.33398 75.791016 L 138.00391 170.57812 C 162.39428 157.80283 179.17578 132.24451 179.17578 102.84961 C 179.17578 93.328312 177.50554 84.224343 174.33398 75.791016 z M 30.771484 77.458984 C 27.933872 85.391069 26.427734 93.914784 26.427734 102.84961 C 26.427734 131.57787 42.46418 156.79642 66.183594 169.74219 L 30.771484 77.458984 z M 102.17773 123.72461 L 82.464844 174.83594 L 82.384766 176.42188 C 88.894801 178.26146 95.742276 179.17578 102.84375 179.17578 C 109.52248 179.17578 115.95321 178.341 122.13477 176.75586 L 121.88672 174.83594 L 102.17773 123.72461 z "
       id="path14" />
  </g>
</svg>
