<svg xmlns="http://www.w3.org/2000/svg" viewBox="353.1 239.5 398.2 363.9"><style type="text/css"> .st0{fill:#000000;}</style><path class="st0" d="M577.7 582.6H539c0 1.4 0.9 3.2 4.4 4.2v16.6h11.4v-16.6h18.7c0.3 0 0.8 0.2 0.8 1.4v15.2h11.4v-16.6C585.7 585 584.3 582.6 577.7 582.6z"/><path class="st0" d="M628.7 586.8c6.7 0 8-2.4 8-4.2H590c0 1.4 0.9 3.2 4.4 4.2v16.6h34.2c6.7 0 8-2.4 8-4.2h-30.8v-4.6h16c6.7 0 8-2.4 8-4.2h-24v-3.6H628.7z"/><path class="st0" d="M523.3 586.8v16.6h11.4v-20.8h-15.8C518.9 584 519.8 585.8 523.3 586.8z"/><path class="st0" d="M682 582.6h-42.1c0 1.4 0.9 3.2 4.4 4.2v16.6h11.4v-16.6h22.1c0.3 0 0.8 0.2 0.8 1.4v1.5c0 0.5-0.2 1.2-0.9 1.2h-9.1l5.9 9.5c1.9 3 7 3 7.6 3h7.8l-5.3-8.4c4.4-0.6 5.3-2.6 5.3-4.1v-4.1C690 585 688.7 582.6 682 582.6z"/><path class="st0" d="M740.2 585.6c-1.9-3-7-3-7.6-3h-38.2c0 1.4 0.9 3.2 4.4 4.2v16.6h11.4v-8.3h22.4l3.3 5.3c1.9 3 7 3 7.6 3h7.8L740.2 585.6zM710.2 590.9v-4.1h16.3c0.8 0 1.4 0.8 1.7 1.2l1.8 2.9H710.2z"/><path class="st0" d="M364.3 585.6l-11.2 17.8h7.8c0.6 0 5.8 0 7.7-3l3.3-5.3h22.4v8.3h11.4v-20.8h-33.7C371.3 582.6 366.2 582.6 364.3 585.6zM376.3 588c0.2-0.4 0.9-1.2 1.7-1.2h16.3v4.1h-19.8L376.3 588z"/><path class="st0" d="M452.1 582.6H410c0 1.4 0.9 3.2 4.4 4.2v16.6h11.4v-16.6h22.1c0.3 0 0.8 0.2 0.8 1.4v1.5c0 0.5-0.2 1.2-0.9 1.2h-9.1l5.9 9.5c1.9 3 7 3 7.6 3h7.8l-5.3-8.4c4.4-0.6 5.3-2.6 5.3-4.1v-4.1C460.1 585 458.8 582.6 452.1 582.6z"/><path class="st0" d="M506.6 582.6h-42.1c0 1.4 0.9 3.2 4.4 4.2v16.6h11.4v-16.6h22.1c0.3 0 0.8 0.2 0.8 1.4v1.5c0 0.5-0.2 1.2-0.9 1.2h-9.1l5.9 9.5c1.9 3 7 3 7.6 3h7.8l-5.3-8.4c4.4-0.6 5.3-2.6 5.3-4.1v-4.1C514.5 585 513.2 582.6 506.6 582.6z"/><path class="st0" d="M499.1 388.9v61.9l5 5v-76.8C501.1 381.3 499.1 384.8 499.1 388.9z"/><path class="st0" d="M504.1 379.1c-3.1 2.2-5 5.8-5 9.8v61.9l5 5V379.1L504.1 379.1z"/><path class="st0" d="M506.3 361V458l5 5V351.2C508.3 353.3 506.3 356.9 506.3 361z"/><path class="st0" d="M511.3 351.2c-3.1 2.2-5 5.8-5 9.8V458l5 5V351.2L511.3 351.2z"/><path class="st0" d="M513.5 333v132.2l5 5V323.2C515.5 325.4 513.5 329 513.5 333z"/><path class="st0" d="M518.5 323.2c-3.1 2.2-5 5.8-5 9.8v132.2l5 5V323.2L518.5 323.2z"/><path class="st0" d="M520.7 305.1C520.7 305.1 520.7 305.1 520.7 305.1v167.3l5 5V295.3C522.7 297.5 520.7 301.1 520.7 305.1z"/><path class="st0" d="M525.7 295.3c-3.1 2.2-5 5.8-5 9.8 0 0 0 0 0 0v167.3l5 5V295.3L525.7 295.3z"/><path class="st0" d="M527.9 277.2C527.9 277.2 527.9 277.2 527.9 277.2v202.5l5 5V267.4C529.9 269.6 527.9 273.2 527.9 277.2z"/><path class="st0" d="M532.9 267.4c-3.1 2.2-5 5.8-5 9.8 0 0 0 0 0 0v202.5l5 5V267.4L532.9 267.4z"/><path class="st0" d="M491.9 416.8v16.8c0 5.6 1.9 10.7 5 14.8v-14.8V407C493.8 409.2 491.9 412.8 491.9 416.8z"/><path class="st0" d="M496.9 407c-3 2.2-5 5.8-5 9.8v16.8c0 5.6 1.9 10.7 5 14.8v-14.8V407L496.9 407z"/><path class="st0" d="M600.4 379.1v76.8l5-5v-61.9C605.4 384.8 603.4 381.3 600.4 379.1z"/><path class="st0" d="M600.4 379.1v76.8l5-5v-61.9C605.4 384.8 603.4 381.3 600.4 379.1L600.4 379.1z"/><path class="st0" d="M593.1 351.2v111.9l5-5V361C598.2 356.9 596.2 353.3 593.1 351.2z"/><path class="st0" d="M593.1 351.2v111.9l5-5V361C598.2 356.9 596.2 353.3 593.1 351.2L593.1 351.2z"/><path class="st0" d="M585.9 323.2l0 147.1 5-5V333C591 329 589 325.4 585.9 323.2z"/><path class="st0" d="M585.9 323.2l0 147.1 5-5V333C591 329 589 325.4 585.9 323.2L585.9 323.2z"/><path class="st0" d="M578.7 295.3v182.2l5-5V305.1c0 0 0 0 0 0C583.8 301.1 581.8 297.5 578.7 295.3z"/><path class="st0" d="M578.7 295.3v182.2l5-5V305.1c0 0 0 0 0 0C583.8 301.1 581.8 297.5 578.7 295.3L578.7 295.3z"/><path class="st0" d="M571.5 267.4v217.3l5-5V277.2c0 0 0 0 0 0C576.6 273.2 574.6 269.6 571.5 267.4z"/><path class="st0" d="M571.5 267.4v217.3l5-5V277.2c0 0 0 0 0 0C576.6 273.2 574.6 269.6 571.5 267.4L571.5 267.4z"/><path class="st0" d="M607.6 407v26.6 14.8c3.2-4.1 5-9.2 5-14.8v-16.8C612.6 412.8 610.6 409.2 607.6 407z"/><path class="st0" d="M607.6 407v26.6 14.8c3.2-4.1 5-9.2 5-14.8v-16.8C612.6 412.8 610.6 409.2 607.6 407L607.6 407z"/><path class="st0" d="M564.3 239.5v192.3c0 6.7-5.4 12.1-12.1 12.1 -6.7 0-12.1-5.4-12.1-12.1V239.5c-3.1 2.2-5 5.8-5 9.8v237.6l3.7 3.7c0.8 0.8 1.4 1.9 1.6 3.1l3.9 22.1 0 0.1c0.1 0.5 0.3 0.9 0.6 1.3l0.1 0.1 3.1 3.7c0 0 0.1 0.1 0.1 0.1 0 0 0 0 0 0 0.3 0.3 0.5 0.7 0.6 1.1 0 0 0 0 0 0 0 0 0 0.1 0 0.1l1.5 6.6 0 0.1c0.1 0.4 0.4 0.8 0.7 1 0 0 0 0 0 0l1.1 0.6 1.1-0.6c0 0 0 0 0 0 0.4-0.2 0.6-0.6 0.7-1l0-0.1 1.5-6.6c0 0 0-0.1 0-0.1 0 0 0 0 0 0 0.1-0.4 0.3-0.8 0.6-1.1 0 0 0 0 0 0 0 0 0.1-0.1 0.1-0.1l3.1-3.7 0.1-0.1c0.3-0.4 0.5-0.8 0.6-1.3l0-0.1 3.9-22.1c0.2-1.2 0.8-2.2 1.6-3.1l3.7-3.7V249.3C569.3 245.2 567.4 241.6 564.3 239.5z"/></svg>